<svg width="471" height="856" viewBox="0 0 471 856" fill="none" xmlns="http://www.w3.org/2000/svg">
<path d="M463.119 785.64L314.709 465.64V275.64C322.665 275.64 330.296 272.479 335.922 266.853C341.548 261.227 344.709 253.596 344.709 245.64C344.709 237.683 341.548 230.053 335.922 224.426C330.296 218.8 322.665 215.64 314.709 215.64H154.709C146.752 215.64 139.122 218.8 133.496 224.426C127.869 230.053 124.709 237.683 124.709 245.64C124.709 253.596 127.869 261.227 133.496 266.853C139.122 272.479 146.752 275.64 154.709 275.64V465.64L6.22875 785.64C-2.20125 803.74 -2.06122 821.18 6.56878 834.64C15.1988 848.1 30.9688 855.64 50.9588 855.64H418.369C438.369 855.64 454.119 848.2 462.749 834.64C471.379 821.08 471.499 803.73 463.119 785.64ZM448.319 825.44C442.959 833.86 432.319 838.44 418.319 838.44H50.9588C37.0088 838.44 26.3688 833.82 21.0088 825.44C15.6488 817.06 15.9288 805.44 21.7788 792.81L154.649 506.37L171.789 469.37V258.54H156.119C155.64 258.544 155.162 258.51 154.689 258.44C151.425 258.074 148.426 256.472 146.306 253.965C144.187 251.457 143.107 248.232 143.29 244.954C143.473 241.675 144.905 238.591 147.29 236.334C149.676 234.078 152.835 232.82 156.119 232.82H313.249C313.726 232.818 314.204 232.841 314.679 232.89C317.828 233.231 320.741 234.725 322.856 237.082C324.972 239.44 326.142 242.497 326.142 245.665C326.142 248.833 324.972 251.889 322.856 254.247C320.741 256.605 317.828 258.098 314.679 258.44C314.205 258.508 313.727 258.541 313.249 258.54H297.509V469.33L314.679 506.33L447.549 792.81C453.419 805.48 453.659 817.08 448.319 825.44Z" fill="#254E70"/>
<path d="M434.388 798.9L301.518 512.41L293.518 495.18H175.828L34.958 798.92C31.278 806.8 30.648 813.62 33.218 817.61C35.788 821.6 42.218 823.97 50.958 823.97H418.368C427.068 823.97 433.528 821.65 436.108 817.64C438.688 813.63 438.038 806.78 434.388 798.9ZM192.198 651.57C188.88 651.574 185.634 650.593 182.874 648.752C180.113 646.911 177.96 644.292 176.688 641.227C175.417 638.161 175.083 634.788 175.729 631.533C176.376 628.278 177.973 625.288 180.32 622.942C182.666 620.595 185.656 618.997 188.911 618.351C192.166 617.705 195.54 618.038 198.605 619.31C201.67 620.582 204.289 622.734 206.13 625.495C207.971 628.256 208.952 631.501 208.948 634.82C208.943 639.26 207.176 643.518 204.036 646.658C200.896 649.798 196.639 651.564 192.198 651.57V651.57ZM252.828 748.73C250.462 749.646 247.877 749.84 245.401 749.288C242.924 748.735 240.667 747.46 238.915 745.625C237.163 743.79 235.994 741.476 235.557 738.977C235.12 736.477 235.433 733.904 236.458 731.583C237.483 729.262 239.173 727.297 241.315 725.936C243.457 724.575 245.954 723.88 248.491 723.939C251.027 723.997 253.49 724.807 255.567 726.265C257.643 727.723 259.241 729.764 260.158 732.13C260.768 733.701 261.063 735.377 261.024 737.062C260.986 738.747 260.616 740.408 259.935 741.95C259.255 743.492 258.276 744.884 257.057 746.047C255.837 747.211 254.4 748.122 252.828 748.73V748.73ZM266.028 575.25C261.247 575.264 256.569 573.858 252.586 571.212C248.604 568.566 245.497 564.797 243.657 560.384C241.818 555.971 241.329 551.111 242.254 546.419C243.178 541.728 245.474 537.417 248.85 534.031C252.226 530.645 256.53 528.337 261.219 527.399C265.907 526.461 270.769 526.936 275.187 528.762C279.606 530.589 283.384 533.685 286.041 537.66C288.699 541.635 290.118 546.308 290.118 551.09C290.121 557.486 287.586 563.622 283.069 568.152C278.553 572.681 272.424 575.234 266.028 575.25V575.25Z" fill="#01BAEF"/>
<path d="M470.418 0C466.098 17.02 461.331 32.6333 456.118 46.84C455.798 47.66 455.528 48.47 455.218 49.28C453.528 53.79 451.838 58.16 450.078 62.41C447.738 68.14 445.298 73.65 442.798 78.9C437.601 89.9414 431.716 100.646 425.178 110.95C369.768 197.95 295.318 199.06 258.178 192.95C256.018 192.61 254.008 192.23 252.178 191.84C250.528 191.51 248.948 191.15 247.528 190.84C243.323 189.889 239.182 188.677 235.128 187.21C238.461 182.243 242.281 176.947 246.588 171.32C259.117 155.179 272.921 140.071 287.868 126.14C304.19 110.838 321.713 96.8698 340.268 84.37C342.888 82.61 345.528 80.84 348.268 79.12C353.088 76 358.098 72.93 363.268 69.92C367.788 67.3 372.398 64.69 377.098 62.17C378.358 61.51 379.608 60.84 380.898 60.17C382.708 59.23 384.538 58.26 386.418 57.34C390.908 55.07 395.488 52.84 400.178 50.7C393.785 52.9267 387.511 55.3933 381.358 58.1C381.158 58.17 380.938 58.28 380.738 58.35C374.738 60.96 368.798 63.76 362.988 66.71C361.818 67.3 360.648 67.93 359.478 68.55C353.038 71.92 346.728 75.46 340.608 79.12C298.748 104.18 264.998 135.19 245.248 156.29C244.188 157.43 243.148 158.57 242.158 159.67C240.398 161.56 238.808 163.39 237.328 165.12C233.928 169.02 231.278 172.33 229.328 174.91C227.343 169.354 225.844 163.636 224.848 157.82C222.809 146.348 222.931 134.597 225.208 123.17C228.078 109.01 234.798 93.91 247.698 79.24C248.068 78.8 248.468 78.36 248.868 77.92C268.748 55.92 302.778 35.01 358.958 19.53C364.768 17.96 370.778 16.42 377.028 14.93C403.578 8.7 434.468 3.64 470.418 0Z" fill="#254E70"/>
<path d="M215.698 186.28C194.788 152.55 119.168 118.12 119.188 118.03C165.038 137.18 194.548 149.81 217.878 179.42C222.878 159.54 226.588 106.77 127.958 97.1598C111.418 95.5398 92.0383 95.1598 69.2783 96.3198C75.1907 111.567 82.7558 126.12 91.8383 139.72C144.708 217.45 215.508 186.76 215.698 186.28Z" fill="#254E70"/>
</svg>
