<svg width="871" height="591" viewBox="0 0 871 591" fill="none" xmlns="http://www.w3.org/2000/svg">
<path d="M678.929 282.34H592.539V397.96H678.929V282.34Z" fill="#254E70"/>
<path d="M743.208 147.14C743.208 216.02 695.578 271.81 636.918 271.81C578.258 271.81 530.648 216 530.648 147.14C530.648 78.28 569.578 28.25 636.918 28.25C710.098 28.25 743.208 78.3 743.208 147.14Z" fill="#254E70"/>
<path d="M737.099 189.89C737.099 255.31 692.269 308.34 636.949 308.34C581.629 308.34 536.809 255.34 536.809 189.89C536.809 124.44 581.579 71.4102 636.949 71.4102C692.319 71.4102 737.099 124.47 737.099 189.89Z" fill="#254E70"/>
<path d="M572.219 189.86C572.219 204.86 562.049 217.04 549.529 217.04C537.009 217.04 526.809 204.86 526.809 189.86C526.809 174.86 536.969 162.72 549.529 162.72C562.089 162.72 572.219 174.89 572.219 189.86Z" fill="#254E70"/>
<path d="M747.099 189.86C747.099 204.86 736.969 217.04 724.449 217.04C711.929 217.04 701.679 204.86 701.679 189.86C701.679 174.86 711.839 162.72 724.449 162.72C737.059 162.72 747.099 174.89 747.099 189.86Z" fill="#254E70"/>
<path d="M869.249 531.41C864.549 489.79 846.489 451.72 822.789 417.93C809.449 398.93 795.259 384.04 778.259 372.83L777.919 372.62C777.639 372.44 777.389 372.25 777.119 372.07C777.119 372.07 777.119 372.12 777.119 372.13C766.555 365.358 755.116 360.059 743.119 356.38C739.939 355.38 736.709 354.38 733.299 353.58C714.099 348.91 691.409 338.43 678.579 324C677.189 323.73 593.939 323.25 592.579 323.52C591.099 325.18 588.279 327.26 586.579 328.82C585.949 329.36 585.309 329.82 584.689 330.4C583.539 331.4 582.359 332.4 581.109 333.28C580.269 333.9 579.409 334.51 578.549 335.12C577.479 335.87 576.369 336.6 575.239 337.32C574.109 338.04 573.159 338.64 572.099 339.27C571.039 339.9 570.259 340.32 569.319 340.82C567.999 341.55 566.689 342.29 565.319 342.97L565.179 343.03C559.2 346.019 553.01 348.566 546.659 350.65C543.269 351.76 539.919 352.77 536.659 353.55C521.102 357.191 506.284 363.472 492.849 372.12V372L492.029 372.57C491.919 372.64 491.799 372.7 491.719 372.76C474.719 383.97 460.509 398.85 447.189 417.86C423.469 451.65 405.409 489.72 400.729 531.34C399.72 540.413 399.359 549.546 399.649 558.67H870.329C870.606 549.569 870.245 540.46 869.249 531.41V531.41Z" fill="#254E70"/>
<path d="M279.409 282.34H193.019V397.96H279.409V282.34Z" fill="#254E70"/>
<path d="M343.689 147.14C343.689 216 296.099 271.81 237.399 271.81C178.699 271.81 131.099 216 131.099 147.14C131.099 78.28 170.099 28.25 237.399 28.25C310.539 28.25 343.689 78.3 343.689 147.14Z" fill="#254E70"/>
<path d="M337.559 189.89C337.559 255.31 292.719 308.34 237.399 308.34C182.079 308.34 137.259 255.34 137.259 189.89C137.259 124.44 182.029 71.4102 237.399 71.4102C292.769 71.4102 337.559 124.47 337.559 189.89Z" fill="#254E70"/>
<path d="M172.698 189.86C172.698 204.86 162.528 217.04 150.008 217.04C137.488 217.04 127.298 204.86 127.298 189.86C127.298 174.86 137.458 162.72 150.008 162.72C162.558 162.72 172.698 174.89 172.698 189.86Z" fill="#254E70"/>
<path d="M347.529 189.86C347.529 204.86 337.399 217.04 324.889 217.04C312.379 217.04 302.099 204.86 302.099 189.86C302.099 174.86 312.259 162.72 324.869 162.72C337.479 162.72 347.529 174.89 347.529 189.86Z" fill="#254E70"/>
<path d="M469.729 531.41C465.029 489.79 446.969 451.72 423.269 417.93C409.929 398.93 395.749 384.04 378.749 372.83L378.399 372.62C378.119 372.44 377.869 372.25 377.599 372.07C377.599 372.07 377.599 372.12 377.599 372.13C367.034 365.359 355.595 360.06 343.599 356.38C340.419 355.38 337.189 354.38 333.789 353.58C314.569 348.91 291.889 338.43 279.099 324C277.709 323.73 194.469 323.25 193.099 323.52C191.619 325.18 188.809 327.26 187.099 328.82C186.479 329.36 185.839 329.82 185.209 330.4C184.059 331.4 182.879 332.4 181.629 333.28C180.799 333.9 179.929 334.51 179.079 335.12C177.999 335.87 176.899 336.6 175.759 337.32C174.619 338.04 173.679 338.64 172.619 339.27C171.559 339.9 170.779 340.32 169.839 340.82C168.519 341.55 167.219 342.29 165.839 342.97L165.709 343.03C159.7 346.021 153.48 348.568 147.099 350.65C143.719 351.76 140.359 352.77 137.099 353.55C121.541 357.191 106.723 363.472 93.2885 372.12V372C93.0085 372.19 92.7485 372.39 92.4685 372.57L92.1585 372.76C75.1585 383.97 60.9585 398.85 47.6385 417.86C23.9185 451.65 5.85853 489.72 1.16853 531.34C0.163991 540.437 -0.193574 549.593 0.0985349 558.74H470.799C471.087 549.616 470.73 540.483 469.729 531.41V531.41Z" fill="#254E70"/>
<path d="M484.188 283.08H387.938V411.9H484.188V283.08Z" fill="#01BAEF"/>
<path d="M555.799 132.46C555.799 209.2 502.739 271.35 437.379 271.35C372.019 271.35 318.989 209.2 318.989 132.46C318.989 55.72 362.359 0 437.379 0C518.859 0 555.799 55.77 555.799 132.46Z" fill="#01BAEF"/>
<path d="M548.959 180.08C548.959 252.97 498.959 312.08 437.379 312.08C375.799 312.08 325.809 253 325.809 180.08C325.809 107.16 375.689 48.0801 437.379 48.0801C499.069 48.0801 548.959 107.21 548.959 180.08Z" fill="#01BAEF"/>
<path d="M365.299 180.05C365.299 196.76 353.969 210.33 340.019 210.33C326.069 210.33 314.708 196.76 314.708 180.05C314.708 163.34 326.029 149.81 340.019 149.81C354.009 149.81 365.299 163.37 365.299 180.05Z" fill="#01BAEF"/>
<path d="M560.098 180.05C560.098 196.76 548.818 210.33 534.878 210.33C520.938 210.33 509.508 196.76 509.508 180.05C509.508 163.34 520.828 149.81 534.878 149.81C548.928 149.81 560.098 163.37 560.098 180.05Z" fill="#01BAEF"/>
<path d="M696.218 560.57C690.978 514.2 670.858 471.79 644.458 434.15C629.588 412.97 613.788 396.38 594.848 383.9L594.468 383.66C594.158 383.46 593.878 383.25 593.568 383.05C593.563 383.061 593.56 383.073 593.56 383.085C593.56 383.097 593.563 383.109 593.568 383.12C581.804 375.571 569.063 369.666 555.698 365.57C552.158 364.45 548.558 363.37 544.768 362.45C523.328 357.28 498.068 345.6 483.768 329.52C482.218 329.22 389.468 328.69 387.908 328.99C386.258 330.84 383.118 333.16 381.208 334.9C380.518 335.49 379.798 336.07 379.108 336.66C377.828 337.75 376.508 338.83 375.108 339.87C374.178 340.56 373.208 341.24 372.258 341.87C371.058 342.71 369.828 343.527 368.568 344.32C367.428 345.06 366.248 345.79 365.068 346.5C364.068 347.1 363.018 347.67 361.968 348.23C360.508 349.04 359.048 349.86 357.538 350.62C357.492 350.651 357.442 350.675 357.388 350.69C350.727 354.023 343.828 356.857 336.748 359.17C332.978 360.41 329.238 361.54 325.608 362.41C308.277 366.471 291.769 373.469 276.798 383.1V383L275.888 383.63C275.768 383.71 275.638 383.77 275.538 383.85C256.598 396.33 240.778 412.92 225.938 434.1C199.508 471.74 179.388 514.15 174.168 560.52C173.046 570.629 172.645 580.804 172.968 590.97H697.418C697.735 580.821 697.334 570.662 696.218 560.57V560.57Z" fill="#01BAEF"/>
</svg>
