<svg width="885" height="667" viewBox="0 0 885 667" fill="none" xmlns="http://www.w3.org/2000/svg">
<path d="M520.411 317.18L468.921 288.07C467.023 287.386 465.284 286.321 463.811 284.94C465.284 270.789 465.23 256.52 463.651 242.38C464.071 240.082 465.021 237.912 466.428 236.046C467.834 234.18 469.657 232.668 471.751 231.63L519.541 196.77C521.014 196.06 522.333 195.066 523.421 193.845C524.51 192.624 525.347 191.201 525.885 189.656C526.423 188.112 526.651 186.476 526.556 184.843C526.461 183.21 526.044 181.612 525.331 180.141V180.141L499.331 126.47C497.89 123.514 495.339 121.246 492.233 120.162C489.128 119.077 485.72 119.264 482.751 120.68L425.751 136.51C423.917 137.371 421.926 137.848 419.901 137.91C410.934 126.868 400.817 116.811 389.721 107.91C388.393 105.99 387.531 103.786 387.204 101.473C386.878 99.1606 387.096 96.8038 387.841 94.5905L396.991 36.1505C398.076 33.0302 397.878 29.6066 396.44 26.6325C395.002 23.6583 392.441 21.3772 389.321 20.2905V20.2905L333.021 0.690486C331.476 0.153328 329.839 -0.0741237 328.206 0.0211286C326.572 0.116381 324.973 0.532471 323.501 1.24563C322.028 1.95879 320.71 2.95506 319.622 4.17755C318.535 5.40003 317.698 6.82479 317.161 8.37048L288.061 59.8505C287.369 61.7508 286.301 63.4921 284.921 64.9705C270.77 63.4998 256.502 63.55 242.361 65.1205C240.063 64.7021 237.895 63.7528 236.028 62.3483C234.162 60.9438 232.649 59.1228 231.611 57.0305L196.751 9.24049C195.312 6.26912 192.753 3.98988 189.635 2.9026C186.518 1.81532 183.096 2.00876 180.121 3.44049V3.44049L126.461 29.4405C124.989 30.1521 123.671 31.1468 122.583 32.3677C121.496 33.5886 120.659 35.0118 120.121 36.5561C119.584 38.1004 119.356 39.7355 119.45 41.368C119.544 43.0005 119.959 44.5984 120.671 46.0705L136.491 103.07C137.353 104.908 137.833 106.902 137.901 108.93C126.854 117.892 116.797 128.01 107.901 139.111C105.981 140.439 103.776 141.301 101.464 141.627C99.1513 141.954 96.7945 141.736 94.5812 140.99L36.1312 131.84C33.0226 130.755 29.6106 130.946 26.642 132.37C23.6734 133.794 21.3899 136.337 20.2912 139.44L0.691186 195.74C0.153952 197.285 -0.0738092 198.92 0.0209054 200.552C0.11562 202.185 0.530955 203.782 1.2432 205.254C1.95544 206.726 2.95063 208.043 4.17194 209.13C5.39326 210.218 6.81677 211.053 8.36118 211.59L59.8512 240.701C61.7477 241.39 63.4857 242.454 64.9612 243.831C63.4937 257.982 63.5473 272.25 65.1212 286.391C64.7042 288.69 63.7556 290.861 62.3511 292.729C60.9465 294.597 59.1247 296.111 57.0312 297.15L9.23118 332C6.259 333.442 3.98006 336.003 2.89454 339.123C1.80902 342.243 2.00562 345.666 3.44119 348.641V348.641L29.3912 402.3C30.8303 405.275 33.3918 407.555 36.5123 408.641C39.6327 409.727 43.0567 409.529 46.0312 408.091L103.031 392.26C104.871 391.405 106.864 390.929 108.891 390.86C117.85 401.91 127.968 411.968 139.071 420.86C140.4 422.781 141.262 424.985 141.588 427.298C141.914 429.61 141.696 431.967 140.951 434.18L131.751 492.651C130.669 495.77 130.869 499.191 132.307 502.162C133.745 505.134 136.304 507.414 139.421 508.5V508.5L195.721 528.1C197.267 528.643 198.905 528.875 200.541 528.783C202.177 528.691 203.779 528.278 205.255 527.566C206.731 526.855 208.052 525.859 209.143 524.636C210.234 523.414 211.072 521.988 211.611 520.44L240.751 468.94C241.436 467.039 242.501 465.297 243.881 463.82C258.032 465.291 272.301 465.241 286.441 463.67C288.739 464.089 290.908 465.038 292.774 466.443C294.64 467.847 296.153 469.668 297.191 471.76L332.051 519.56C332.763 521.033 333.757 522.35 334.978 523.438C336.199 524.526 337.623 525.363 339.167 525.9C340.711 526.438 342.346 526.666 343.979 526.572C345.611 526.477 347.209 526.062 348.681 525.35V525.35L402.351 499.35C403.823 498.639 405.141 497.644 406.229 496.423C407.317 495.202 408.153 493.779 408.691 492.235C409.229 490.691 409.457 489.055 409.363 487.423C409.268 485.79 408.853 484.193 408.141 482.721L392.311 425.721C391.451 423.883 390.975 421.889 390.911 419.86C401.959 410.899 412.016 400.781 420.911 389.68C422.833 388.35 425.039 387.488 427.353 387.161C429.668 386.835 432.026 387.054 434.241 387.8L492.681 396.951C495.801 398.036 499.225 397.837 502.199 396.399C505.173 394.961 507.455 392.4 508.541 389.281V389.281L528.131 332.98C529.198 329.861 528.985 326.446 527.538 323.484C526.09 320.522 523.528 318.255 520.411 317.18V317.18ZM236.231 345.31C220.228 339.743 206.235 329.554 196.022 316.033C185.809 302.512 179.835 286.266 178.856 269.35C177.876 252.434 181.935 235.608 190.519 220.998C199.103 206.389 211.826 194.653 227.08 187.275C242.334 179.897 259.433 177.209 276.215 179.549C292.997 181.889 308.708 189.154 321.362 200.423C334.015 211.693 343.042 226.462 347.302 242.862C351.561 259.263 350.861 276.558 345.291 292.56C337.823 314.017 322.137 331.628 301.685 341.52C281.233 351.413 257.689 352.776 236.231 345.31V345.31Z" fill="#254E70"/>
<path d="M862.751 291.3L832.101 264.84C830.924 264.12 829.904 263.172 829.101 262.05C832.006 252.744 833.9 243.152 834.751 233.44C835.338 231.954 836.265 230.626 837.458 229.564C838.651 228.501 840.077 227.732 841.621 227.32L878.381 210.32C879.465 210.042 880.484 209.552 881.379 208.88C882.274 208.207 883.028 207.365 883.597 206.401C884.166 205.437 884.54 204.37 884.697 203.262C884.854 202.153 884.791 201.024 884.511 199.94V199.94L874.321 160.44C873.728 158.267 872.3 156.416 870.348 155.292C868.396 154.168 866.078 153.862 863.901 154.44L823.541 157.38C822.193 157.712 820.791 157.766 819.421 157.54C814.891 148.926 809.453 140.82 803.201 133.36C802.567 131.891 802.285 130.295 802.377 128.698C802.469 127.101 802.933 125.547 803.731 124.16L817.731 86.1604C818.309 85.1963 818.69 84.1273 818.853 83.0151C819.016 81.9029 818.958 80.7694 818.681 79.68C818.404 78.5906 817.914 77.5668 817.239 76.6675C816.565 75.7682 815.719 75.0113 814.751 74.4404V74.4404L779.591 53.7404C778.628 53.1698 777.562 52.7947 776.454 52.6366C775.346 52.4786 774.218 52.5407 773.134 52.8193C772.049 53.098 771.031 53.5878 770.137 54.2606C769.242 54.9335 768.489 55.7761 767.921 56.7404L741.461 87.3704C740.741 88.5468 739.792 89.5669 738.671 90.3704C729.374 87.4742 719.792 85.5867 710.091 84.7404C708.606 84.152 707.279 83.2243 706.216 82.0314C705.153 80.8385 704.384 79.4135 703.971 77.8704L686.971 41.1004C686.404 38.9115 684.991 37.0373 683.043 35.8898C681.094 34.7422 678.77 34.4151 676.581 34.9804V34.9804L637.081 45.1704C634.892 45.7374 633.018 47.1503 631.87 49.0986C630.723 51.0469 630.396 53.3711 630.961 55.5604L633.961 95.9204C634.289 97.2694 634.34 98.6711 634.111 100.04C625.498 104.569 617.392 110.003 609.931 116.25C608.465 116.889 606.869 117.173 605.273 117.081C603.676 116.989 602.124 116.523 600.741 115.72L562.741 101.72C561.778 101.15 560.712 100.775 559.604 100.617C558.496 100.459 557.368 100.521 556.283 100.799C555.199 101.078 554.181 101.568 553.287 102.241C552.392 102.913 551.639 103.756 551.071 104.72V104.72L530.351 139.85C529.203 141.798 528.875 144.121 529.437 146.31C529.999 148.5 531.407 150.377 533.351 151.53L563.981 177.99C565.159 178.708 566.18 179.657 566.981 180.78C564.089 190.075 562.205 199.653 561.361 209.35C560.771 210.837 559.842 212.166 558.647 213.23C557.453 214.295 556.026 215.065 554.481 215.48L517.751 232.44C515.562 233.005 513.688 234.416 512.538 236.362C511.389 238.308 511.059 240.631 511.621 242.82L521.811 282.32C522.378 284.509 523.791 286.383 525.739 287.531C527.687 288.679 530.012 289.006 532.201 288.44L572.571 285.49C573.916 285.156 575.315 285.105 576.681 285.34C581.213 293.954 586.651 302.059 592.901 309.52C593.534 310.988 593.816 312.583 593.724 314.178C593.632 315.774 593.169 317.326 592.371 318.71L578.371 356.71C577.223 358.658 576.895 360.981 577.457 363.17C578.019 365.36 579.427 367.237 581.371 368.39V368.39L616.511 389.11C618.457 390.257 620.778 390.586 622.966 390.023C625.154 389.461 627.029 388.054 628.181 386.11L654.641 355.44C655.358 354.262 656.307 353.241 657.431 352.44C666.73 355.329 676.311 357.213 686.011 358.06C687.497 358.651 688.824 359.581 689.886 360.775C690.949 361.97 691.717 363.396 692.131 364.94L709.131 401.7C709.698 403.889 711.111 405.763 713.059 406.911C715.007 408.059 717.332 408.386 719.521 407.82L759.021 397.63C760.105 397.352 761.124 396.862 762.018 396.19C762.913 395.517 763.666 394.674 764.234 393.71C764.803 392.746 765.176 391.679 765.331 390.57C765.487 389.462 765.422 388.334 765.141 387.25L762.141 346.88C761.812 345.531 761.761 344.13 761.991 342.76C770.606 338.235 778.712 332.801 786.171 326.55C787.638 325.917 789.233 325.635 790.829 325.727C792.424 325.819 793.976 326.282 795.361 327.08L833.361 341.08C835.307 342.227 837.628 342.556 839.816 341.993C842.004 341.431 843.879 340.024 845.031 338.08V338.08L865.751 302.97C866.32 302.007 866.694 300.941 866.852 299.833C867.009 298.726 866.947 297.598 866.668 296.514C866.389 295.43 865.9 294.412 865.228 293.518C864.556 292.623 863.714 291.87 862.751 291.3ZM668.271 271.92C658.286 266.029 650.271 257.31 645.242 246.864C640.212 236.418 638.393 224.716 640.013 213.236C641.634 201.757 646.623 191.015 654.348 182.371C662.074 173.726 672.189 167.567 683.415 164.671C694.641 161.775 706.473 162.272 717.416 166.101C728.36 169.93 737.922 176.917 744.894 186.18C751.865 195.443 755.934 206.565 756.585 218.141C757.236 229.716 754.44 241.224 748.551 251.21C744.641 257.843 739.462 263.64 733.311 268.271C727.16 272.901 720.157 276.275 712.702 278.198C705.246 280.121 697.485 280.557 689.862 279.48C682.238 278.402 674.901 275.834 668.271 271.92Z" fill="#254E70"/>
<path d="M603.001 653.33L602.361 623.53C602.163 622.54 602.163 621.52 602.361 620.53C608.875 617.535 615.047 613.847 620.771 609.53C621.874 609.12 623.058 608.973 624.228 609.102C625.399 609.23 626.523 609.63 627.511 610.27L654.921 622.02C656.309 622.938 658.006 623.268 659.637 622.936C661.269 622.604 662.702 621.638 663.621 620.25V620.25L680.201 595.18C680.655 594.493 680.969 593.722 681.125 592.914C681.282 592.105 681.277 591.273 681.112 590.466C680.946 589.659 680.624 588.893 680.162 588.21C679.7 587.528 679.109 586.943 678.421 586.49L656.901 565.86C656.054 565.284 655.333 564.542 654.781 563.68C657.263 556.957 659.016 549.987 660.011 542.89C660.5 541.818 661.234 540.876 662.152 540.138C663.071 539.4 664.149 538.887 665.301 538.64L692.981 527.57C693.789 527.405 694.557 527.083 695.241 526.622C695.925 526.16 696.511 525.568 696.966 524.88C697.421 524.192 697.736 523.421 697.893 522.611C698.05 521.801 698.046 520.968 697.881 520.16V520.16L691.881 490.72C691.546 489.089 690.578 487.657 689.189 486.738C687.8 485.82 686.103 485.489 684.471 485.82L654.751 486.44C653.761 486.637 652.741 486.637 651.751 486.44C648.752 479.928 645.064 473.756 640.751 468.03C640.341 466.926 640.194 465.742 640.323 464.572C640.451 463.402 640.851 462.278 641.491 461.29L653.231 433.88C653.687 433.193 654.003 432.422 654.161 431.613C654.319 430.804 654.315 429.971 654.151 429.163C653.986 428.355 653.664 427.587 653.203 426.903C652.741 426.22 652.149 425.634 651.461 425.18V425.18L626.401 408.6C625.011 407.682 623.314 407.355 621.682 407.688C620.051 408.022 618.619 408.99 617.701 410.38L597.081 431.9C596.505 432.747 595.763 433.468 594.901 434.02C588.174 431.538 581.201 429.785 574.101 428.79C573.003 428.308 572.036 427.571 571.279 426.641C570.523 425.71 569.999 424.613 569.751 423.44L558.751 395.75C558.587 394.942 558.266 394.174 557.806 393.49C557.345 392.807 556.754 392.221 556.067 391.765C555.38 391.31 554.609 390.995 553.8 390.838C552.991 390.681 552.159 390.685 551.351 390.85V390.85L521.901 396.85C520.27 397.185 518.839 398.153 517.922 399.543C517.005 400.932 516.677 402.629 517.011 404.26L517.641 434.07C517.848 435.059 517.848 436.081 517.641 437.07C511.133 440.071 504.965 443.759 499.241 448.07C498.136 448.48 496.95 448.627 495.778 448.498C494.607 448.37 493.481 447.97 492.491 447.33L465.091 435.59C464.404 435.134 463.633 434.818 462.824 434.66C462.014 434.502 461.182 434.506 460.374 434.67C459.565 434.834 458.798 435.157 458.114 435.618C457.431 436.08 456.845 436.672 456.391 437.36V437.36L439.751 462.44C438.832 463.829 438.503 465.525 438.835 467.156C439.167 468.788 440.133 470.221 441.521 471.14L463.051 491.76C463.895 492.336 464.612 493.078 465.161 493.94C462.682 500.667 460.932 507.64 459.941 514.74C459.451 515.81 458.717 516.751 457.799 517.487C456.88 518.223 455.802 518.734 454.651 518.98L426.961 530.06C426.153 530.223 425.385 530.545 424.701 531.005C424.018 531.466 423.431 532.056 422.976 532.744C422.521 533.431 422.206 534.202 422.049 535.011C421.892 535.82 421.896 536.652 422.061 537.46V537.46L428.061 566.9C428.224 567.709 428.546 568.478 429.007 569.162C429.468 569.847 430.06 570.433 430.748 570.889C431.437 571.344 432.208 571.659 433.019 571.815C433.829 571.972 434.662 571.966 435.471 571.8L465.271 571.17C466.26 570.962 467.282 570.962 468.271 571.17C471.268 577.679 474.956 583.848 479.271 589.57C479.681 590.675 479.827 591.861 479.699 593.032C479.571 594.204 479.171 595.33 478.531 596.32L466.781 623.72C465.862 625.109 465.533 626.805 465.865 628.436C466.197 630.068 467.163 631.501 468.551 632.42L493.611 649C494.999 649.918 496.696 650.248 498.327 649.916C499.959 649.584 501.392 648.618 502.311 647.23L522.941 625.7C523.517 624.856 524.259 624.138 525.121 623.59C531.844 626.068 538.814 627.818 545.911 628.81C546.982 629.3 547.925 630.033 548.663 630.951C549.401 631.87 549.914 632.948 550.161 634.1L561.251 661.84C561.586 663.471 562.554 664.903 563.943 665.822C565.332 666.74 567.029 667.07 568.661 666.74V666.74L598.101 660.74C598.909 660.575 599.677 660.253 600.361 659.792C601.045 659.33 601.631 658.738 602.086 658.05C602.541 657.362 602.856 656.591 603.013 655.781C603.17 654.971 603.166 654.138 603.001 653.33V653.33ZM517.671 537.44C515.966 529.072 516.781 520.386 520.012 512.48C523.244 504.575 528.747 497.806 535.826 493.028C542.904 488.25 551.241 485.679 559.781 485.639C568.321 485.6 576.682 488.094 583.804 492.805C590.927 497.517 596.493 504.235 599.798 512.11C603.102 519.985 603.998 528.663 602.37 537.047C600.743 545.431 596.666 553.144 590.655 559.21C584.644 565.277 576.969 569.425 568.601 571.13C557.38 573.416 545.71 571.151 536.159 564.833C526.607 558.515 519.957 548.661 517.671 537.44Z" fill="#01BAEF"/>
</svg>
