<svg id="Layer_1" data-name="Layer 1" xmlns="http://www.w3.org/2000/svg" viewBox="0 0 872.09 797.58"><defs><style>.cls-1{fill:#e8f2fc;}.cls-2{fill:#edf3f7;}.cls-3{fill:#93e5f9;}.cls-4{fill:#01baef;}.cls-5{fill:#ffb8b8;}.cls-6{fill:#2f2e41;}.cls-7{fill:#5d97ed;}.cls-8{fill:#1360ef;}.cls-9{fill:#fd7e75;}.cls-10{fill:#6976e9;}.cls-11{fill:#fff;}.cls-12{fill:#4dc6b8;}.cls-13{fill:#000103;}.cls-14{fill:#f84f14;}.cls-15{fill:#39257a;}.cls-16{fill:#135fee;}.cls-17,.cls-18{fill:none;stroke:#135fee;stroke-miterlimit:10;}.cls-18{stroke-dasharray:11.9 11.9;}</style></defs><path class="cls-1" d="M184.73,814.94c-7.35-46.84,32-56-29.62-139.25-45.07-60.88-65.68-99.2-26.38-156.75,112-164,208.79-24.88,317-132,99-98,75-115,153-166,148.14-96.86,333.67,8.6,347,137s-27.66,106.05,4,190c43,114,53,207-57,286-54.76,39.33-155-4-240,52-140.76,92.74-181,91.77-342,56C203.8,918.19,191.12,855.66,184.73,814.94Z" transform="translate(-107.92 -166.83)"/><ellipse class="cls-2" cx="418.31" cy="740.61" rx="265.5" ry="12.5"/><path class="cls-3" d="M810.08,364.09C795,324.56,749.41,252.92,699,252.49c-22.48-.19-44.14,9.52-62.08,23.06s-32.68,30.81-47.26,47.92c-18.84,22.11-37.09,45-56.63,66.45-16,17.62-38.59,25.69-60.55,35.25q-71.12,31-141.27,64.11C281.51,512.74,234.26,533.51,227,594.15c-3.92,32.67,11.81,66.32,37.75,86.57,27.38,21.38,58.53,28.75,90.7,28.68a313.07,313.07,0,0,0,21.55,37c32.69,49.15,73.64,93.37,123.09,125.6,9.42,6.15,19.92,12,31.15,11.35,15.92-1,27.74-14.59,37.62-27.12,17.31-22,35.31-45.52,38.31-73.33a22.53,22.53,0,0,0-.27-8.15c-2.58-9.77-14.38-13-23.92-16.35C561.69,751,544.15,735.85,527.17,721L488.39,687.2c18.68-2.79,37.42-4,56.2-1.81,58.49,6.84,111.73,39.35,169.56,50.88,35,7,75.2,8.51,102.4-14.64,20.22-17.21,28.61-44.2,36.05-69.68,6.94-23.8,8.43-44.7,8.43-69.53C861.76,502.92,837.88,436.85,810.08,364.09Z" transform="translate(-107.92 -166.83)"/><path class="cls-4" d="M527.72,921.86c-11.94,0-23.12-6.22-33.44-12.94-51.94-33.85-98.36-81.22-138-140.78a351.19,351.19,0,0,1-23.86-40.83c-22.41,0-44-4.23-62.43-12.08-21.09-9-37.7-22.42-49.37-39.91-13.42-20.11-20-40.13-20.15-61.2-.18-26.4,7.47-54.58,20.47-75.38,17.88-28.62,48.16-42.78,77.44-56.48l7.14-3.35c52.05-24.59,105.2-48.71,158-71.7,3.06-1.34,6.18-2.66,9.2-3.95,21.91-9.32,42.6-18.13,58.1-35.17,14.54-16,28.66-32.94,42.33-49.33,6.84-8.21,13.92-16.7,21-24.95,16.11-18.91,32.77-38.46,53-53.76,15.73-11.87,40.54-26,69.4-26h.75c31.76.28,59.85,25.39,77.83,46.42,23,26.92,39.64,58.53,47.51,79.14,15.37,40.21,30,79.61,40.49,119.36,11.68,44.37,16.94,84.15,16.56,125.2,0,27.37-1.61,51.13-9.47,78.07-7.59,26-17,58.38-40.67,78.49-17,14.42-40.15,21.73-69,21.73h0c-14.1,0-29.33-1.67-46.55-5.1-29.25-5.83-57.86-16.6-85.53-27-33.53-12.62-68.21-25.68-104-29.86a194.22,194.22,0,0,0-22.3-1.25,266.24,266.24,0,0,0-37.68,2.9L526,738.23c17.86,15.58,38.1,33.24,62,41.55l2.54.87c10.38,3.54,22.14,7.55,25,18.23a26.09,26.09,0,0,1,.34,9.54c-3.5,32.39-25.45,60.23-43.09,82.6-11.27,14.3-24.82,29.64-42.93,30.77C529.13,921.84,528.42,921.86,527.72,921.86ZM333.2,724.93a1.2,1.2,0,0,1,1.07.67,344.55,344.55,0,0,0,24,41.22c39.43,59.29,85.62,106.43,137.29,140.11,10,6.52,20.82,12.56,32.14,12.56.65,0,1.32,0,2-.07,17.13-1.06,30.25-16,41.21-29.87,17.45-22.13,39.17-49.67,42.58-81.38a24,24,0,0,0-.26-8.69c-2.5-9.45-13.62-13.24-23.44-16.58l-2.55-.88c-24.36-8.46-44.78-26.28-62.8-42l-43.36-37.83a1.17,1.17,0,0,1-.36-1.22,1.2,1.2,0,0,1,1-.85,273.13,273.13,0,0,1,40.58-3.3,194.24,194.24,0,0,1,22.57,1.28c36.06,4.21,70.87,17.31,104.54,30C677,738.47,705.47,749.2,734.53,755c17.06,3.4,32.13,5.06,46.08,5.06,28.23,0,50.91-7.12,67.42-21.17,23.09-19.65,32.42-51.64,39.93-77.34,7.78-26.68,9.38-50.24,9.38-77.42.79-86-23.08-155.24-56.89-243.7-15.39-40.26-65.73-123.54-123.15-124h-.73c-28.2,0-52.53,13.9-68,25.56C628.55,257.08,612,276.54,596,295.35c-7,8.25-14.11,16.73-21,24.93-13.68,16.41-27.82,33.37-42.4,49.4-15.84,17.44-37.74,26.76-58.92,35.77-3,1.28-6.13,2.61-9.18,3.94-52.78,23-105.91,47.09-157.94,71.67l-7.15,3.35C270.45,498,240.49,512,223,540c-12.77,20.44-20.28,48.14-20.11,74.11.14,20.59,6.61,40.18,19.76,59.89,21.59,32.37,61.76,50.93,110.2,50.93Z" transform="translate(-107.92 -166.83)"/><path class="cls-4" d="M791.19,716a29.43,29.43,0,0,0,5.82,1.93c36.83,8.06,47.84-39.44,55.59-66,6.94-23.8,8.43-44.7,8.43-69.53.73-79.5-23.15-145.57-50.95-218.33-10-26.11-71-141.33-105.93-96.16-22.59,29.19-18.39,95.67-18.93,131,45.37,21.3,79.76,64.62,90.21,113.63,11.09,52-6.07,98.41-35.27,140.54C754.36,670.34,769.1,706.12,791.19,716Z" transform="translate(-107.92 -166.83)"/><path class="cls-4" d="M708.11,553.21a1.19,1.19,0,0,1-1.13-.82,518.52,518.52,0,0,1-10.53-282,1.19,1.19,0,0,1,2.31.57c-22.4,91.47-18.67,191.16,10.48,280.7a1.19,1.19,0,0,1-1.13,1.56Z" transform="translate(-107.92 -166.83)"/><path class="cls-4" d="M642.29,647.05a1.18,1.18,0,0,1-1-.56,465.68,465.68,0,0,1-44.59-96.25c-12.27-37.17-19-73.38-20-107.62-1.08-38.28,5.14-72.83,18.51-102.68,15-33.4,38.8-60.71,70.89-81.18a1.19,1.19,0,1,1,1.28,2c-75.86,48.39-89.9,125.57-88.31,181.79C581,508,604.35,581.87,643.3,645.24a1.19,1.19,0,0,1-.39,1.64A1.16,1.16,0,0,1,642.29,647.05Z" transform="translate(-107.92 -166.83)"/><path class="cls-4" d="M344.91,702.75a1.19,1.19,0,0,1-.92-.44c-21.6-26.46-42-51.46-50.77-89.66-7.64-33.31-7.43-69.53.61-104.76a1.19,1.19,0,1,1,2.31.53c-8,34.88-8.17,70.74-.61,103.7,8.64,37.66,28.88,62.45,50.3,88.69a1.19,1.19,0,0,1-.92,1.94Z" transform="translate(-107.92 -166.83)"/><path class="cls-5" d="M410.32,505.67c-1.64,2-2.66,4.33-2.37,6.47a10.74,10.74,0,0,0,2.14,4.43q6.5,9.36,13.28,18.5a1.82,1.82,0,0,0,3,.61,65.44,65.44,0,0,0,8.3-6,4.18,4.18,0,0,0,1.08-1.47c.4-1.19-.35-2.43-1-3.48a95,95,0,0,1-7.86-14.43c-1.62-3.68-3.59-8-7.53-8.81C416.34,500.86,412.68,502.86,410.32,505.67Z" transform="translate(-107.92 -166.83)"/><path class="cls-6" d="M425,536.49h-.16a2.66,2.66,0,0,1-1.69-1.27c-4.5-6.07-9-12.3-13.28-18.5a11,11,0,0,1-2.18-4.54,8.94,8.94,0,0,1,2.43-6.65c2.23-2.67,5.39-4.39,8.06-4.39a5.88,5.88,0,0,1,1.2.12c4.15.87,6.2,5.54,7.7,9a96.37,96.37,0,0,0,7.84,14.39c.74,1.12,1.5,2.41,1.07,3.68a4.34,4.34,0,0,1-1.13,1.57,55.16,55.16,0,0,1-7.15,5.25l-1.2.78A2.8,2.8,0,0,1,425,536.49Zm-6.82-34.88c-2.53,0-5.54,1.66-7.69,4.22-1.73,2.07-2.58,4.35-2.31,6.27a10.38,10.38,0,0,0,2.09,4.34c4.31,6.19,8.77,12.41,13.27,18.48.38.51.8,1,1.35,1.08a2.18,2.18,0,0,0,1.35-.53l1.2-.78a55.45,55.45,0,0,0,7.08-5.19,3.88,3.88,0,0,0,1-1.37c.36-1.06-.3-2.2-1-3.26a97.47,97.47,0,0,1-7.89-14.47c-1.45-3.32-3.44-7.86-7.35-8.68A5.62,5.62,0,0,0,418.2,501.61Z" transform="translate(-107.92 -166.83)"/><path class="cls-5" d="M382.92,508.21a2.81,2.81,0,0,0-1.73-1.51,15.5,15.5,0,0,0-16.87,3.55c-3.59,3.8-4.95,9.13-6.18,14.21-1.29,5.31-5.81,12.86-.21,16.6a22.67,22.67,0,0,0,6,2.5A6.65,6.65,0,0,0,367,544a4.46,4.46,0,0,0,3-2.71,15.81,15.81,0,0,0,1-4.1A47.08,47.08,0,0,1,376.12,522c2.31-4.23,5.33-7.52,6.68-12.23A2.81,2.81,0,0,0,382.92,508.21Z" transform="translate(-107.92 -166.83)"/><path class="cls-6" d="M366.31,544.28h0a8.74,8.74,0,0,1-2.47-.49,23,23,0,0,1-6-2.53c-4.52-3-2.68-8.4-1.05-13.14.46-1.32.88-2.57,1.16-3.72,1.12-4.62,2.51-10.37,6.24-14.32a15.84,15.84,0,0,1,11.34-4.75,14.82,14.82,0,0,1,5.8,1.15,2.42,2.42,0,0,1,1.76,3.39,29.92,29.92,0,0,1-4.21,8.21c-.85,1.3-1.72,2.64-2.5,4.07a46.75,46.75,0,0,0-5.13,15.06l-.08.52a14.46,14.46,0,0,1-.89,3.64,4.7,4.7,0,0,1-3.2,2.85A4.2,4.2,0,0,1,366.31,544.28Zm9.17-38.46a15.32,15.32,0,0,0-11,4.59c-3.64,3.86-5,9.3-6.12,14.11-.29,1.17-.72,2.43-1.18,3.76-1.57,4.57-3.35,9.76.86,12.57a21.9,21.9,0,0,0,5.93,2.47,8.11,8.11,0,0,0,2.32.47h0a3.22,3.22,0,0,0,.63,0,4.19,4.19,0,0,0,2.84-2.57,13.46,13.46,0,0,0,.86-3.51l.08-.52a47.08,47.08,0,0,1,5.19-15.23c.78-1.44,1.66-2.79,2.51-4.09a29.85,29.85,0,0,0,4.15-8.08,2.72,2.72,0,0,0,.12-1.46,2.61,2.61,0,0,0-1.6-1.35A14.25,14.25,0,0,0,375.48,505.82Z" transform="translate(-107.92 -166.83)"/><path class="cls-6" d="M430.68,505.92c-1.05-1.66-2.34-3.22-3.53-4.8-8-10.69-16.53-20.85-25.15-31,1.73-4.38,3.36-8.88,3.46-13.58.11-5.08-1.95-10.53-6.36-13.06-3.42-2-7.62-1.9-11.56-1.6-3.15.24-6.28.61-9.41,1.07a12.14,12.14,0,0,0-1-.65c-5.63-3.11-17.3,1.17-23,3.11-6.26,2.13-12.33,4.85-18.65,6.82-4.93,1.54-10,4.24-15,5a104,104,0,0,1-18.32.95,3.65,3.65,0,0,0-2.27.41,3.51,3.51,0,0,0-1,1.4c-5.6,11.18-10.7,26.5,1.63,35.43,5.17,3.74,11.9,4.86,18.25,4.19s12.41-3,18.23-5.64a172.25,172.25,0,0,0,29-16.67s1,1,2.56,2.59q-2.22,5.41-4.18,10.92a234,234,0,0,0-9.46,35.57c.33-1.83,20.59,5.48,22.35,6.31l12.3-31c3.94,3.87,7.91,7.72,11.86,11.58,3.5,3.42,7.29,5.76,10.19,9.76C410.57,521.74,428.42,507.11,430.68,505.92Z" transform="translate(-107.92 -166.83)"/><path class="cls-5" d="M418.26,396.73a1.18,1.18,0,0,0-1.57-.1c-1.45.93-2.62,2.28-4.15,3.08a12.91,12.91,0,0,1-2.41.89l-1.15.34c.55-.34,1-.63,1.22-.79,2.16-1.5,4.84-3.73,5.81-6.27.24-.62.73-1.68,0-2.17l-.06,0a1.46,1.46,0,0,0-1.44.07,4.82,4.82,0,0,0-1.15,1.06,19.87,19.87,0,0,1-3.46,3.08,41.42,41.42,0,0,0,3.58-3.68,10.23,10.23,0,0,0,1.14-1.5,2.51,2.51,0,0,0,.45-1.9,1.09,1.09,0,0,0-1.72-.53,3.76,3.76,0,0,0-.84.85,18.94,18.94,0,0,1-5.43,4.28c.46-.5.92-1,1.4-1.48,1.42-1.4,3.56-2.15,3.91-4.3.44-2.74-4.94,1.38-5.2,1.56-1.64,1.16-3.62,1.9-5.18,3.18a6.8,6.8,0,0,1-2.13,1.38,26.76,26.76,0,0,0-3,1.22c-.55.29-5.23,2.39-5.16,2.87a23.61,23.61,0,0,1-.47-3.62c0-1.49.49-2.94.62-4.42a4.44,4.44,0,0,0-1.39-4,1.1,1.1,0,0,0-1-.24,1.16,1.16,0,0,0-.51.47,10.82,10.82,0,0,0-1.26,4.4,29.43,29.43,0,0,1-3,8.88,16.26,16.26,0,0,0-1.55,3.43c-.36,1.43.12,3.05-.57,4.41a4.47,4.47,0,0,1-1,1.16c-4.32,4.14-8.76,8.18-13.31,12.07-2.95,2.54-6.25,4.63-9.44,6.89a3.75,3.75,0,0,1-2,.88,3.82,3.82,0,0,1-1.92-.71l-8.83-5.31a.81.81,0,0,0-.61-.17.86.86,0,0,0-.42.38q-4,6-8.09,12.07a1.56,1.56,0,0,0-.38,1.15,1.52,1.52,0,0,0,.42.62c3.51,3.66,8.26,5.81,12.89,7.88l9.55,4.26a2.08,2.08,0,0,0,1.3.27,2.12,2.12,0,0,0,.75-.44c5.54-4.48,10-10.53,14.66-15.87,1.12-1.28,2.24-2.56,3.41-3.81,3.09-3.3,6.46-6.33,9.59-9.6a57.89,57.89,0,0,0,4.42-5.1c.71-.94,1-1.52,2.16-1.92s2.13-.55,3.17-.91a22.34,22.34,0,0,0,4.45-2.1,42,42,0,0,0,4.18-2.5,2.19,2.19,0,0,0,.44-.42l2.5-1.32c2.65-1.39,5.35-2.87,7.21-5.27a3.12,3.12,0,0,0,.77-1.64A1.28,1.28,0,0,0,418.26,396.73Z" transform="translate(-107.92 -166.83)"/><path class="cls-6" d="M360.54,448.82a2.9,2.9,0,0,1-1.13-.31l-9.55-4.27c-4.39-2-9.37-4.19-13-7.93a1.62,1.62,0,0,1-.47-.73,1.75,1.75,0,0,1,.41-1.35l8.09-12.06a1,1,0,0,1,.56-.48,1.08,1.08,0,0,1,.8.19l8.82,5.31a3.77,3.77,0,0,0,1.78.68,3.57,3.57,0,0,0,1.9-.84c.84-.6,1.7-1.19,2.55-1.78a81.92,81.92,0,0,0,6.88-5.09c4.4-3.78,8.87-7.84,13.29-12.07a4.4,4.4,0,0,0,.92-1.09,5.34,5.34,0,0,0,.39-2.44,7.76,7.76,0,0,1,.17-1.92,12.93,12.93,0,0,1,1.26-2.9l.31-.58a29.51,29.51,0,0,0,2.94-8.81l.09-.57a9.41,9.41,0,0,1,1.21-3.92,1.44,1.44,0,0,1,.62-.57,1,1,0,0,1,.36-.07,1.69,1.69,0,0,1,.91.34c1.58,1.16,1.56,3.36,1.49,4.25-.06.65-.19,1.29-.3,1.92a13.82,13.82,0,0,0-.33,2.48,13.32,13.32,0,0,0,.29,2.51c0,.19.07.38.1.56a32.63,32.63,0,0,1,4.25-2.23c.31-.15.54-.25.64-.31a21.48,21.48,0,0,1,2.34-1l.67-.25a5.74,5.74,0,0,0,1.86-1.18l.2-.16a18.08,18.08,0,0,1,2.92-1.83,21.77,21.77,0,0,0,2.28-1.36l.09-.06c1.53-1.13,3.58-2.48,4.67-2.48a.83.83,0,0,1,.65.26,1.16,1.16,0,0,1,.17,1c-.26,1.6-1.44,2.46-2.58,3.3a14.1,14.1,0,0,0-1.4,1.13l-.17.18a16.39,16.39,0,0,0,3.84-3.31l.07-.08a3.94,3.94,0,0,1,.82-.81,1.5,1.5,0,0,1,.85-.27,1.3,1.3,0,0,1,1.24.92,2.61,2.61,0,0,1-.47,2.1,6.19,6.19,0,0,1-.51.75l.07,0a1.72,1.72,0,0,1,1.68-.07l.08.05c.79.56.36,1.65.11,2.3l-.06.16c-.78,2-2.71,4.15-5.74,6.27a12.19,12.19,0,0,0,1.93-.74,13.91,13.91,0,0,0,2.3-1.67,16.7,16.7,0,0,1,1.83-1.4,1.43,1.43,0,0,1,1.88.14,1.47,1.47,0,0,1,.32,1.09,3.32,3.32,0,0,1-.81,1.78c-1.84,2.36-4.39,3.81-7.29,5.34l-2.46,1.29a3.3,3.3,0,0,1-.45.42,18.39,18.39,0,0,1-2.69,1.66c-.5.28-1,.56-1.51.86a22.82,22.82,0,0,1-4.5,2.12c-.51.18-1,.31-1.55.44s-1.09.28-1.62.47a3.44,3.44,0,0,0-1.8,1.51l-.24.32A55.85,55.85,0,0,1,389.4,419c-1.45,1.52-3,3-4.46,4.45-1.71,1.66-3.48,3.38-5.13,5.15-1.17,1.24-2.31,2.54-3.41,3.8s-2.4,2.81-3.56,4.2c-3.44,4.1-7,8.35-11.13,11.7a2.2,2.2,0,0,1-.85.49A1.66,1.66,0,0,1,360.54,448.82Zm-14.88-26.67h-.05c-.1,0-.2.15-.28.28l-8.1,12.06a1.38,1.38,0,0,0-.34,1,1.27,1.27,0,0,0,.35.51c3.53,3.68,8.47,5.88,12.82,7.82l9.55,4.27a1.93,1.93,0,0,0,1.14.25,1.66,1.66,0,0,0,.65-.39c4.11-3.32,7.65-7.55,11.06-11.64,1.17-1.39,2.37-2.83,3.57-4.2s2.25-2.56,3.42-3.81c1.66-1.78,3.43-3.5,5.15-5.17,1.47-1.44,3-2.92,4.45-4.43a59.31,59.31,0,0,0,4.4-5.09l.24-.32a3.85,3.85,0,0,1,2-1.68c.55-.19,1.11-.34,1.66-.48s1-.26,1.51-.43a21.56,21.56,0,0,0,4.4-2.07c.5-.31,1-.6,1.54-.87a19,19,0,0,0,2.62-1.62,2.77,2.77,0,0,0,.4-.38l.08-.07,2.5-1.31c2.85-1.5,5.36-2.93,7.13-5.21a2.92,2.92,0,0,0,.72-1.51,1,1,0,0,0-.21-.75,1,1,0,0,0-1.25,0,15.41,15.41,0,0,0-1.77,1.36,13.82,13.82,0,0,1-2.4,1.73,13.13,13.13,0,0,1-2.45.9l-.76.23-2.14.62,1.55-.95c.61-.37,1-.67,1.21-.78,3-2.1,5-4.17,5.72-6.15l.07-.17c.28-.73.5-1.41.06-1.72l-.05,0a1.22,1.22,0,0,0-1.19.07,4.26,4.26,0,0,0-1,.91l-.09.11a20.82,20.82,0,0,1-3.5,3.11l-.3-.38a41.67,41.67,0,0,0,3.56-3.66,9.69,9.69,0,0,0,1.11-1.46,2.19,2.19,0,0,0,.43-1.7.8.8,0,0,0-.78-.59,1.07,1.07,0,0,0-.58.18,3.73,3.73,0,0,0-.71.72l-.07.08a19.4,19.4,0,0,1-5.5,4.34l-1.38.79,1.15-1.24c.43-.47.88-1,1.34-1.41a13.36,13.36,0,0,1,1.45-1.18c1.11-.82,2.16-1.59,2.39-3a.77.77,0,0,0-.06-.57.36.36,0,0,0-.28-.09c-.74,0-2.34.87-4.38,2.38l-.09.07a24,24,0,0,1-2.34,1.39,18.53,18.53,0,0,0-2.84,1.78l-.2.16a6.45,6.45,0,0,1-2,1.26l-.67.25a19.11,19.11,0,0,0-2.29,1l-.65.31c-2.76,1.31-4.24,2.11-4.39,2.38a.54.54,0,0,0,0-.08l-.49.07c0-.35-.11-.7-.17-1.06a14.78,14.78,0,0,1-.3-2.6,14.47,14.47,0,0,1,.34-2.56c.11-.62.24-1.25.29-1.87.07-.81.09-2.81-1.29-3.81a.9.9,0,0,0-.8-.22,1.15,1.15,0,0,0-.4.39,9,9,0,0,0-1.13,3.72l-.09.58a29.52,29.52,0,0,1-3,8.95l-.31.59a12.12,12.12,0,0,0-1.22,2.79,7.07,7.07,0,0,0-.15,1.8,5.82,5.82,0,0,1-.45,2.66,4.75,4.75,0,0,1-1,1.23c-4.43,4.23-8.91,8.3-13.32,12.08a80.56,80.56,0,0,1-6.91,5.12c-.85.59-1.71,1.18-2.55,1.78a4,4,0,0,1-2.16.93h0a4.12,4.12,0,0,1-2-.75L346,422.3A.93.93,0,0,0,345.66,422.15Z" transform="translate(-107.92 -166.83)"/><path class="cls-7" d="M333,433.88a10.17,10.17,0,0,1-4-9.89l.69-20c0-.27,2.54.63,2.72.72a25.77,25.77,0,0,1,3.22,1.85,28,28,0,0,1,5.95,5.75c2.37,2.91,4.55,6,7.44,8.4a.75.75,0,0,1,.34.5.66.66,0,0,1-.12.33c-2.52,4.64-5.09,9.21-7.3,14-.22.48-2.49,4.73-2.28,4.94Z" transform="translate(-107.92 -166.83)"/><path class="cls-6" d="M290.4,414.83c-1.53-5.66.86-11.6,3.61-16.77,1.79-3.38,3.82-6.92,3.54-10.73-.16-2.16-1.06-4.22-1.25-6.38a13.6,13.6,0,0,1,1.44-6.84c1.43-3.13,3.69-6,6.83-7.42s7.24-.93,9.46,1.69a7.55,7.55,0,0,1,1.61,6.23c-.93,5.84-.05,11.59,0,17.46a42.41,42.41,0,0,1-1.7,12.1,13.94,13.94,0,0,1-3.14,6.08,16.63,16.63,0,0,1-3.83,2.64c-4.6,2.57-9.88,5.22-14.92,3.68a2.59,2.59,0,0,1-1-.53A2.56,2.56,0,0,1,290.4,414.83Z" transform="translate(-107.92 -166.83)"/><path class="cls-8" d="M336.53,438a23.41,23.41,0,0,0-2.16,8.73c0,3.44.63,7,.93,10.45-3.76,2-7.2,4.61-10.9,6.75a52.93,52.93,0,0,1-15.19,5.88,53.48,53.48,0,0,1-8.45,1.15c-1.43.08-6.55.85-7.47-.48-.78-1.13,1-4.57,1.26-5.76q1.14-4.61,2.18-9.24c1.31-5.8,2.31-10.49,1.49-16.36s-1.68-12-2.51-18a34.49,34.49,0,0,1-.41-10.13c1.39-8.74,12.25-14,20.47-12.81a37.22,37.22,0,0,1,15,5.77c4.84,3.12,7.09,8.15,10.1,13a14.31,14.31,0,0,1,2,4.05c.85,3.49-1,7-2.79,10.14A67.44,67.44,0,0,0,336.53,438Z" transform="translate(-107.92 -166.83)"/><path class="cls-7" d="M313.83,417.05c0-.15,0-.29,0-.44a12.44,12.44,0,0,0-.54-3.39,4.75,4.75,0,0,0-2.09-2.64c-1.39-.76-2.92-.13-4.29.36a14.21,14.21,0,0,0-4.38,2.49,47.56,47.56,0,0,0-6.87,7.31c0,.16.05.31.07.46q1.25,9,2.51,18c.14,1-.07,2.5.28,3.4s.75.46,1.57.34a15.66,15.66,0,0,0,4.57-1.15,10.83,10.83,0,0,0,3.43-3.21,25.28,25.28,0,0,0,4.47-8.78A39.4,39.4,0,0,0,313.83,417.05Z" transform="translate(-107.92 -166.83)"/><path class="cls-9" d="M309.9,376.21c-2.41-1.25-3.12-4.3-3-6.79a4.79,4.79,0,0,1,1-2.86c2.87-3.41,6.86,1.81,7.51,4.67.73,3.17-.89,6.2-4.47,5.37A4.13,4.13,0,0,1,309.9,376.21Z" transform="translate(-107.92 -166.83)"/><path class="cls-8" d="M376.59,544.54c-1.83-3.85-3.72-8-2.86-12.23A187.44,187.44,0,0,0,355,530.74q-4,8.4-8.08,16.8c.09-.19,19.35,11.7,21.06,12.84q5.13,3.45,10.09,7.11c3.08,2.26,5.34,4.57,9.32,5.32a18.45,18.45,0,0,1,1.37-2.35,4.18,4.18,0,0,0,.72-2.58c-.22-1.73-2-2.83-2.9-4.19-1.32-2-2.52-4.14-3.64-6.23s-2.19-4.31-3.23-6.49S377.62,546.68,376.59,544.54Z" transform="translate(-107.92 -166.83)"/><path class="cls-10" d="M363.76,556.38a15.73,15.73,0,0,0-4.25-8.33,7.44,7.44,0,0,1-1.6-1.95c-.69-1.5-.06-3.22.22-4.84a11.06,11.06,0,0,0-2.81-9.29,109.38,109.38,0,0,0-7.91,16.52l15.53,8.4c.23.12.54.24.73.06A.66.66,0,0,0,363.76,556.38Z" transform="translate(-107.92 -166.83)"/><path class="cls-11" d="M388.31,569.88c-2.23,0-9.69-4-10.52-4.51-2.47-1.56-29.61-19-30-18.49l-2.85,4.6c6.09,3.29,12.11,6.72,18.1,10.21q4.49,2.61,8.95,5.27c2.39,1.42,4.19,3.58,6.49,5.06a17.21,17.21,0,0,0,8.1,2.68c.42,0,2-4.55,2.28-5.09C388.82,569.79,388.61,569.87,388.31,569.88Z" transform="translate(-107.92 -166.83)"/><path class="cls-6" d="M386.62,575.19h0a17.73,17.73,0,0,1-8.32-2.76,28.71,28.71,0,0,1-3.1-2.44,23.79,23.79,0,0,0-3.38-2.61c-3.27-2-6.2-3.67-8.95-5.27-6.62-3.86-12.53-7.2-18.09-10.21l-.45-.24,3.27-5.27h.3c.53,0,3.17,1.33,28,17.2l2.15,1.38c1.11.69,8.18,4.43,10.22,4.43a.52.52,0,0,0,.23,0l-.05.06.89.39h0c0,.12-.16.42-.31.81C387.44,574.81,387.12,575.19,386.62,575.19Zm-41-23.9c5.43,3,11.22,6.22,17.66,10,2.75,1.6,5.68,3.32,9,5.28a24.29,24.29,0,0,1,3.52,2.7,27,27,0,0,0,3,2.36,16.7,16.7,0,0,0,7.67,2.59,34.26,34.26,0,0,0,1.64-3.85c-2.76-.22-10.07-4.27-10.56-4.57l-2.16-1.38c-16.33-10.43-25.51-16.12-27.32-17Z" transform="translate(-107.92 -166.83)"/><path class="cls-6" d="M381.54,567.54l-1-.25a8,8,0,0,0-.29-5,16.81,16.81,0,0,0-3.71-5.06l-9.93-10.47a4.5,4.5,0,0,1-1-1.38,4.43,4.43,0,0,1-.24-1.3l-.95-11.18,1-.08.95,11.18a3.56,3.56,0,0,0,.18,1,3.49,3.49,0,0,0,.8,1.07l9.93,10.47a17.58,17.58,0,0,1,3.91,5.37A9.1,9.1,0,0,1,381.54,567.54Z" transform="translate(-107.92 -166.83)"/><path class="cls-8" d="M441.5,520.47c-4.18-.87-8.66-1.9-11.47-5.11a185.91,185.91,0,0,0-12.6,14L425.92,546c8.48-3.77,17.16-7.11,26-10q6.62-2.17,13.33-4c1.42-.39,2.77-.55,3.31-2.08a6.4,6.4,0,0,0-1.19-5.33,1.12,1.12,0,0,0-.41-.37,1.54,1.54,0,0,0-.88-.08,41,41,0,0,1-10.46-.77c-2.38-.37-4.75-.86-7.11-1.35Z" transform="translate(-107.92 -166.83)"/><path class="cls-10" d="M443.17,537.85a15.68,15.68,0,0,0-9.2-1.65,7.43,7.43,0,0,1-2.53.09c-1.6-.35-2.59-1.9-3.72-3.1a11,11,0,0,0-9.1-3.37A109.31,109.31,0,0,0,427,546.1l16.08-7.29c.24-.11.52-.28.49-.54S443.35,537.94,443.17,537.85Z" transform="translate(-107.92 -166.83)"/><path class="cls-11" d="M468.87,526.81a.65.65,0,0,0-.22.11,49.08,49.08,0,0,1-9.83,5.18c-5.42,2-10.85,4-16.26,6-2.47.92-4.58,2.49-7.05,3.49a45.26,45.26,0,0,1-7.56,2.24,4.79,4.79,0,0,0-2.34.87c.83,2.21,2.09,6.53,5,5.46,5.38-2,11.18-4.25,16-7.46.76-.51,1.32-1.22,2.07-1.72a22.26,22.26,0,0,1,4-1.76q4.44-1.82,8.88-3.59c3.08-1.27,6.33-2.15,9.4-3.39-.17-.71-1.12-5.54-2.05-5.47Z" transform="translate(-107.92 -166.83)"/><path class="cls-6" d="M429.74,550.84h0c-2.42,0-3.59-3.2-4.36-5.32l-.23-.62-.11-.3.23-.22a4.35,4.35,0,0,1,2.24-.92l.34-.07a44.79,44.79,0,0,0,7.48-2.22,33.84,33.84,0,0,0,3.3-1.65,27.35,27.35,0,0,1,3.76-1.85l7.73-2.86,8.53-3.16a48,48,0,0,0,9.73-5.14,1.33,1.33,0,0,1,.36-.17l.15,0h.05c.89,0,1.52,1.44,2.42,5.48,0,.16.06.29.08.36l.1.41-.39.16c-1.51.61-3.08,1.14-4.6,1.65s-3.23,1.09-4.79,1.74q-4.45,1.78-8.89,3.59c-.37.16-.76.3-1.16.44a13.32,13.32,0,0,0-2.78,1.27,7.93,7.93,0,0,0-1,.81,9.13,9.13,0,0,1-1.11.91c-4.95,3.32-10.89,5.62-16.07,7.52A3.07,3.07,0,0,1,429.74,550.84Zm-3.55-6,.1.3c.68,1.86,1.71,4.68,3.45,4.68h0a2.13,2.13,0,0,0,.71-.14c5.13-1.87,11-4.14,15.87-7.41a8.27,8.27,0,0,0,1-.82,8.05,8.05,0,0,1,1.08-.9,14.15,14.15,0,0,1,3-1.37c.39-.14.77-.28,1.13-.43q4.44-1.81,8.89-3.6c1.59-.65,3.25-1.21,4.85-1.75,1.38-.46,2.8-.94,4.16-1.48-.78-3.51-1.26-4.42-1.48-4.65h0a48.87,48.87,0,0,1-9.93,5.24l-8.53,3.16c-2.58.95-5.16,1.9-7.73,2.87a26.46,26.46,0,0,0-3.63,1.78,33.68,33.68,0,0,1-3.4,1.7,45.89,45.89,0,0,1-7.65,2.27l-.35.07A4.47,4.47,0,0,0,426.19,544.89Z" transform="translate(-107.92 -166.83)"/><path class="cls-6" d="M462,531a8.07,8.07,0,0,0-4.14-2.77,16.75,16.75,0,0,0-6.27-.1l-14.34,1.58a4.5,4.5,0,0,1-1.71,0,4.21,4.21,0,0,1-1.18-.59l-9.48-6,.52-.82,9.48,6a3.49,3.49,0,0,0,.92.47,3.35,3.35,0,0,0,1.34,0l14.35-1.58a17.87,17.87,0,0,1,6.63.13,9.11,9.11,0,0,1,4.65,3.11Z" transform="translate(-107.92 -166.83)"/><path class="cls-6" d="M460.6,526.37a.49.49,0,0,1-.36-.17,4.86,4.86,0,0,1-.87-1.61c-.07-.17-.14-.35-.22-.52-.18-.42-.58-1.12-1.18-1.22s-1,.33-1.72,1a5.83,5.83,0,0,1-1.38,1.15,2.91,2.91,0,0,1-3.88-1.24,5.88,5.88,0,0,1-.41-1.38,2.33,2.33,0,0,0-.67-1.54,1.68,1.68,0,0,0-1.85.33,7.4,7.4,0,0,0-.91.94,8.93,8.93,0,0,1-.91.94,2.72,2.72,0,0,1-3,.6c-.93-.51-1.34-1.69-1.13-3.25v-.07a1.73,1.73,0,0,0,0-.82.52.52,0,0,0-.38-.3,1.41,1.41,0,0,0-1.12.2,5,5,0,0,0-.94,1,7.88,7.88,0,0,1-.79.86,2.22,2.22,0,0,1-3,.25c-.75-.74-.51-1.88-.34-2.7l0-.1c.12-.56.08-1.41-.38-1.54a1.08,1.08,0,0,0-.7.18,7.91,7.91,0,0,0-2.61,2.95.49.49,0,0,1-.83-.51,8.81,8.81,0,0,1,3-3.3,1.94,1.94,0,0,1,1.41-.26c1.07.29,1.32,1.59,1.09,2.68l0,.1c-.15.67-.31,1.44.07,1.81s1.15.15,1.64-.29a8.4,8.4,0,0,0,.69-.75,5.6,5.6,0,0,1,1.14-1.14,2.38,2.38,0,0,1,1.95-.34,1.53,1.53,0,0,1,1,.86,2.48,2.48,0,0,1,.08,1.34v.07c-.06.42-.19,1.81.63,2.25a1.76,1.76,0,0,0,1.86-.47,8.23,8.23,0,0,0,.81-.85,9.44,9.44,0,0,1,1-1.06,2.56,2.56,0,0,1,3-.36,3.12,3.12,0,0,1,1.07,2.13,4.7,4.7,0,0,0,.32,1.15,2,2,0,0,0,2.55.82,5.36,5.36,0,0,0,1.14-1c.68-.69,1.45-1.49,2.57-1.31a2.71,2.71,0,0,1,1.92,1.78c.09.19.16.38.23.57a4.19,4.19,0,0,0,.7,1.31.5.5,0,0,1,0,.69A.48.48,0,0,1,460.6,526.37Z" transform="translate(-107.92 -166.83)"/><path class="cls-6" d="M384,561.62l-.15,0a.49.49,0,0,1-.31-.62,4.69,4.69,0,0,0,.37-2,1.27,1.27,0,0,0-1-1.17,1.94,1.94,0,0,0-.52,0,2,2,0,0,1-1.19-.08,1.36,1.36,0,0,1-.74-.83,2.4,2.4,0,0,1,.2-1.8,6.4,6.4,0,0,1,.43-.67,2.91,2.91,0,0,0,.56-1.11,1.25,1.25,0,0,0-.32-1,1.75,1.75,0,0,0-1.28-.62h0a4.27,4.27,0,0,0-.59,0,2.49,2.49,0,0,1-1.76-.22,2.1,2.1,0,0,1-.61-2.46,8.34,8.34,0,0,1,.4-.91,4.71,4.71,0,0,0,.4-1,2.3,2.3,0,0,0-1.43-2.63,6.89,6.89,0,0,0-.89-.2,2.89,2.89,0,0,1-2.07-1,2.66,2.66,0,0,1,.31-3c.13-.19.28-.37.42-.55a4,4,0,0,0,.85-1.49,2.2,2.2,0,0,0-1.21-2.24A4,4,0,0,0,371,536a.49.49,0,0,1-.6-.34.49.49,0,0,1,.35-.6,5,5,0,0,1,3.62.25,3.14,3.14,0,0,1,1.71,3.3,4.61,4.61,0,0,1-1,1.88c-.13.17-.27.34-.39.52-.37.54-.69,1.36-.32,1.86a2.14,2.14,0,0,0,1.45.58,6.15,6.15,0,0,1,1,.24,3.29,3.29,0,0,1,2.07,3.79,6.08,6.08,0,0,1-.47,1.17,6,6,0,0,0-.35.79c-.16.48-.14,1.1.22,1.33a1.64,1.64,0,0,0,1.1.07c.23,0,.47,0,.71,0h0a2.67,2.67,0,0,1,2,1,2.18,2.18,0,0,1,.54,1.79,3.59,3.59,0,0,1-.72,1.51,4.77,4.77,0,0,0-.37.59,1.39,1.39,0,0,0-.14,1,.42.42,0,0,0,.21.25,1.33,1.33,0,0,0,.66,0,3.12,3.12,0,0,1,.76,0,2.23,2.23,0,0,1,1.83,2,5.44,5.44,0,0,1-.42,2.44A.49.49,0,0,1,384,561.62Z" transform="translate(-107.92 -166.83)"/><path class="cls-5" d="M291,423.08a4.15,4.15,0,0,1,1.14.68l8.89,6.66c.9.68,1.91,1.56,1.83,2.69a3.44,3.44,0,0,1-.69,1.58l-7.63,11.63c1.07-1.64,17.22,6.29,19,7.22,2.34,1.25,4.17,2.55,6.87,2.6,3.55.06,5.9-1.93,9-3.31s6.42-4,9.69-4.6a12.9,12.9,0,0,1,3-.06c5.2.29,10.4.61,15.6.93-.85,1.8-3,2.55-4.94,2.95-4.48.9-6.54,3.72-10.52,5.78a23.57,23.57,0,0,1-9.49,2.93c-3.05.13-5.31,1.75-8.28,2.62a41.13,41.13,0,0,1-10.17,1.44,61.69,61.69,0,0,1-6.66-.13c-10.77-.84-21.76-5-30.86-10.74-2.83-1.77-4.32-2.25-2.78-5.53,1.26-2.67,2.6-5.29,4-7.87a107.52,107.52,0,0,1,10.6-16.29,2.79,2.79,0,0,1,1.84-1.26A1.63,1.63,0,0,1,291,423.08Z" transform="translate(-107.92 -166.83)"/><path class="cls-6" d="M312,465.1c-1.54,0-3-.06-4.47-.17-10.13-.79-21.13-4.62-31-10.78l-.75-.46c-2.32-1.42-3.61-2.2-2.12-5.38,1.25-2.66,2.61-5.31,4.05-7.88a107.42,107.42,0,0,1,10.62-16.32,3,3,0,0,1,2-1.35h.07a2.09,2.09,0,0,1,.6.1,4.52,4.52,0,0,1,1.21.71l8.89,6.67c1,.75,2,1.68,1.92,2.9a3.65,3.65,0,0,1-.73,1.69l-7.24,11h.08c3.38,0,17,6.74,18.42,7.47l1.1.6c1.85,1,3.45,1.92,5.65,2h.17c2.44,0,4.31-1,6.3-2.06.77-.41,1.57-.84,2.42-1.22a36.43,36.43,0,0,0,3.32-1.77A21,21,0,0,1,339,448a9,9,0,0,1,1.55-.12c.5,0,1,0,1.48.06,5.25.29,10.52.62,15.61.93l.36,0-.16.33c-.72,1.52-2.39,2.53-5.11,3.08a16.13,16.13,0,0,0-6.57,3.27,29.26,29.26,0,0,1-3.89,2.48,23.35,23.35,0,0,1-9.59,3,14.41,14.41,0,0,0-5.14,1.46,27.77,27.77,0,0,1-3.08,1.15,40.66,40.66,0,0,1-10.23,1.45C313.45,465.09,312.7,465.1,312,465.1Zm-21.55-41.86h-.05a2.59,2.59,0,0,0-1.66,1.17,107.66,107.66,0,0,0-10.58,16.26c-1.43,2.56-2.78,5.2-4,7.85s-.43,3.32,1.93,4.76l.75.46c9.77,6.12,20.69,9.92,30.75,10.71a62.41,62.41,0,0,0,6.63.13,40.72,40.72,0,0,0,10.12-1.43,30.56,30.56,0,0,0,3-1.14,14.9,14.9,0,0,1,5.31-1.49,23.27,23.27,0,0,0,9.39-2.91,29.93,29.93,0,0,0,3.82-2.44,16.73,16.73,0,0,1,6.76-3.36c2.35-.48,3.86-1.29,4.6-2.49-5-.3-10.11-.62-15.23-.91-.47,0-1-.05-1.45-.05a8.08,8.08,0,0,0-1.47.11,20.93,20.93,0,0,0-6.27,2.79c-1.17.67-2.28,1.31-3.36,1.79-.84.38-1.63.8-2.39,1.21-2,1.09-4,2.12-6.53,2.12h-.18a12.06,12.06,0,0,1-5.88-2l-1.09-.6c-1.36-.72-14.9-7.42-18.19-7.42-.29,0-.43.06-.47.12l-.41-.27h0l7.63-11.64a3.2,3.2,0,0,0,.64-1.46c.07-1-.83-1.8-1.73-2.47L292,424a4.15,4.15,0,0,0-1.08-.63A1.36,1.36,0,0,0,290.43,423.24Z" transform="translate(-107.92 -166.83)"/><path class="cls-5" d="M318.08,376.74a4.85,4.85,0,0,1,3.26.35c7,3,5.65,13.49,5.76,19.78,0,1.84-.13,3.67,0,5.51a3.06,3.06,0,0,0,.39,1.83c.2.28,1.43.73,1.45.78a18.15,18.15,0,0,1,1.1,7.86c-.12,1.43-.85,2.67-2.45,2.67a5.93,5.93,0,0,1-2.59-.8,38.24,38.24,0,0,1-13.41-11.34c1.73-2.31,2.26-5.76,2.32-8.57.1-4.42-.61-9.58.75-13.78C315.21,379.21,316.24,377.28,318.08,376.74Z" transform="translate(-107.92 -166.83)"/><path class="cls-6" d="M327.55,415.77a6.15,6.15,0,0,1-2.7-.83,38.63,38.63,0,0,1-13.5-11.41l-.1-.15.11-.14c1.77-2.38,2.21-5.9,2.27-8.44,0-1.22,0-2.47-.05-3.8-.09-3.43-.19-7,.81-10,.8-2.48,2-4,3.62-4.45a5,5,0,0,1,3.43.36c6.12,2.66,6,11,5.91,17.1,0,1,0,2,0,2.9s0,1.61,0,2.39c0,1-.06,2.07,0,3.1,0,.11,0,.21,0,.3a2.35,2.35,0,0,0,.33,1.4,4.54,4.54,0,0,0,1,.55c.35.16.41.18.45.3a18.43,18.43,0,0,1,1.11,8c-.15,1.81-1.15,2.89-2.68,2.9Zm-15.7-12.39a38,38,0,0,0,13.22,11.12,5.59,5.59,0,0,0,2.48.78v0c1.81,0,2.14-1.72,2.2-2.45a17.72,17.72,0,0,0-1.05-7.67l-.22-.1a3.55,3.55,0,0,1-1.23-.71,2.7,2.7,0,0,1-.42-1.67c0-.1,0-.19,0-.29-.05-1.05,0-2.11,0-3.14,0-.78.05-1.58,0-2.37s0-1.88,0-2.92c.09-6.29.2-14.11-5.63-16.65a4.58,4.58,0,0,0-3.09-.34c-1.44.43-2.55,1.82-3.3,4.14-1,3-.87,6.49-.78,9.88,0,1.33.07,2.59.05,3.83C314.06,397.37,313.62,400.91,311.85,403.38Z" transform="translate(-107.92 -166.83)"/><path class="cls-6" d="M317.38,385.58a5.71,5.71,0,0,1,1.2.56,7.93,7.93,0,0,0,1.38.33,9.31,9.31,0,0,1,4.86,4A25.88,25.88,0,0,1,327,394c.87,1.87,1.18,4.36-1.3,5.05a5.78,5.78,0,0,1-3.14.09,7.73,7.73,0,0,1-3-1.79,10.94,10.94,0,0,1-2.14-2.94,24.25,24.25,0,0,0-1.49-3.18,19.85,19.85,0,0,1-1.54-1.89,3.94,3.94,0,0,1-.41-2.77,2.38,2.38,0,0,1,.58-1.15C315.39,384.66,316.48,385.34,317.38,385.58Z" transform="translate(-107.92 -166.83)"/><path class="cls-5" d="M314.22,369.11a11.77,11.77,0,0,1,2.4-2.16c2.72-1.81,7-2.38,10-.73,5.84,3.23,6.95,12.91,7.27,18.9.25,4.88.06,13.48-7.3,12.68a14.16,14.16,0,0,1-6.88-2.84,11.17,11.17,0,0,1-2.45-2.5A30.67,30.67,0,0,1,315.5,389c-1.06-2-3.21-3.43-3.72-5.73a20.63,20.63,0,0,1-.37-8A13.07,13.07,0,0,1,314.22,369.11Z" transform="translate(-107.92 -166.83)"/><path class="cls-6" d="M327.5,398.1a8,8,0,0,1-1-.06,14.47,14.47,0,0,1-7-2.89,11,11,0,0,1-2.5-2.55,11.79,11.79,0,0,1-1.13-2.17c-.19-.45-.39-.91-.62-1.34a13.43,13.43,0,0,0-1.57-2.15,8.68,8.68,0,0,1-2.18-3.65,20.85,20.85,0,0,1-.37-8.07A13.3,13.3,0,0,1,314,369a11.65,11.65,0,0,1,2.46-2.21,11.11,11.11,0,0,1,6-1.75,8.65,8.65,0,0,1,4.21,1c4.43,2.46,6.84,8.71,7.39,19.11.29,5.59-.49,9.28-2.39,11.29A5.6,5.6,0,0,1,327.5,398.1Zm-5-32.62a10.61,10.61,0,0,0-5.75,1.67,11.25,11.25,0,0,0-2.36,2.12,12.76,12.76,0,0,0-2.75,6,20.33,20.33,0,0,0,.37,7.89,8.16,8.16,0,0,0,2.07,3.44,13.14,13.14,0,0,1,1.63,2.23c.24.45.44.92.64,1.37a10.35,10.35,0,0,0,1.08,2.09,10.87,10.87,0,0,0,2.39,2.44,14,14,0,0,0,6.76,2.8,5.39,5.39,0,0,0,4.77-1.5c1.81-1.9,2.55-5.48,2.26-10.93-.54-10.22-2.87-16.34-7.14-18.7A8.15,8.15,0,0,0,322.51,365.48Z" transform="translate(-107.92 -166.83)"/><path class="cls-6" d="M311.84,364.37c3.65-3.94,10.16-3.63,14.37-.74,1.77,1.22,2.48,3,3.85,4.54a12.68,12.68,0,0,0,5.14,3.54,3.78,3.78,0,0,1,1.24.61,2.24,2.24,0,0,1-.18,3.12,5.81,5.81,0,0,1-3.17,1.34,12.14,12.14,0,0,1-2.32.27,7.67,7.67,0,0,1-6.69-4.06c-.32-.62-1.56,2.32-1.59,2.45a15.1,15.1,0,0,1-.82,3.29c-1.27,2.22-4.16,1.21-5.41,3.64l-2.73,5.34c-1.55-.39-2.29-2.13-2.79-3.66a35.61,35.61,0,0,1-2.11-10.1A13.68,13.68,0,0,1,311.84,364.37Z" transform="translate(-107.92 -166.83)"/><path class="cls-8" d="M313.73,411.85a20.43,20.43,0,0,0-.61-4.1c-.51-2-1.86-3.43-3.34-4.86-3.68-3.58-8.73-1.63-12.14,1.29A47.64,47.64,0,0,0,283,427.08,231.15,231.15,0,0,0,302.9,439c.43.21,2.91-3.9,3.2-4.27a37.11,37.11,0,0,0,4.22-6.57A33.88,33.88,0,0,0,313.73,411.85Z" transform="translate(-107.92 -166.83)"/><path class="cls-5" d="M317.83,386.53a15.8,15.8,0,0,0-.19-2.57,5.75,5.75,0,0,0-2.09-3.94,2.23,2.23,0,0,0-2.4-.24,2.93,2.93,0,0,0-.93,2.66,9.23,9.23,0,0,0,2.22,6.31,2.26,2.26,0,0,0,1.63.81,1.81,1.81,0,0,0,1.46-1.13A4.52,4.52,0,0,0,317.83,386.53Z" transform="translate(-107.92 -166.83)"/><path class="cls-8" d="M390.68,498.42a.46.46,0,0,1-.23-.05.48.48,0,0,1-.2-.66,150.81,150.81,0,0,0,11.18-27.08.49.49,0,0,1,.93.28,152.5,152.5,0,0,1-11.25,27.26A.5.5,0,0,1,390.68,498.42Z" transform="translate(-107.92 -166.83)"/><path class="cls-8" d="M378,521.51a.54.54,0,0,1-.22,0c-5.72-2.75-12.85-6.17-20-5.6a.5.5,0,0,1-.53-.45.48.48,0,0,1,.45-.52c7.39-.6,14.65,2.89,20.48,5.69a.48.48,0,0,1,.22.65A.47.47,0,0,1,378,521.51Z" transform="translate(-107.92 -166.83)"/><path class="cls-8" d="M406,516.9a.51.51,0,0,1-.31-.11.5.5,0,0,1-.06-.69c4.74-5.61,9.63-11.41,16.09-15.3a.47.47,0,0,1,.66.16.49.49,0,0,1-.16.67c-6.32,3.81-11.16,9.55-15.84,15.1A.52.52,0,0,1,406,516.9Z" transform="translate(-107.92 -166.83)"/><path class="cls-8" d="M311.76,489.29h-.7a20.24,20.24,0,0,1-11.66-3.75.48.48,0,0,1-.1-.66l1.73-2.53a4.1,4.1,0,0,0,.6-1.1,4.26,4.26,0,0,0,.09-1.09l-.07-8.33a.5.5,0,0,1,.48-.49h0a.49.49,0,0,1,.48.49l.07,8.33a4.62,4.62,0,0,1-.12,1.36,4.9,4.9,0,0,1-.73,1.38L300.37,485a19.36,19.36,0,0,0,10.71,3.27,41.78,41.78,0,0,0,11.83-1.77c7.59-2.08,15.41-5.21,25.35-10.13,4-2,8-4.09,11.9-6.13l.34-.18c1.19-.62,2.4-1.29,3.57-1.94a79.75,79.75,0,0,1,8.72-4.37c1.11-.44,2.14-1,3.24-1.54.71-.38,1.45-.76,2.21-1.11l2.5-1.17a.49.49,0,1,1,.41.89l-2.5,1.16c-.74.34-1.47.72-2.18,1.09-1.06.55-2.16,1.12-3.32,1.59a76.94,76.94,0,0,0-8.61,4.32c-1.18.65-2.39,1.32-3.59,1.95l-.34.18c-3.89,2-7.92,4.15-11.92,6.14-10,5-17.87,8.09-25.53,10.19A43.82,43.82,0,0,1,311.76,489.29Z" transform="translate(-107.92 -166.83)"/><path class="cls-8" d="M358.76,525.5h-.06a.49.49,0,0,1-.42-.54,145.67,145.67,0,0,1,5.05-23.64c2.3-8,5.1-17.24,9.35-25.8,3.58-7.21,7.54-14.79,13.09-21.08a.49.49,0,1,1,.73.64c-5.47,6.21-9.4,13.72-12.95,20.88-4.21,8.48-7,17.68-9.28,25.63a145.37,145.37,0,0,0-5,23.48A.47.47,0,0,1,358.76,525.5Z" transform="translate(-107.92 -166.83)"/><path class="cls-6" d="M405.21,403.16A.25.25,0,0,1,405,403a33.77,33.77,0,0,0-2.64-8.68.25.25,0,0,1,.12-.32.25.25,0,0,1,.33.12,34.3,34.3,0,0,1,2.67,8.8.24.24,0,0,1-.2.28Z" transform="translate(-107.92 -166.83)"/><path class="cls-6" d="M395.22,412a6.46,6.46,0,0,1-1.52-.24,4.76,4.76,0,0,1-2.23-1.3.25.25,0,0,1,0-.35.24.24,0,0,1,.34,0,4.35,4.35,0,0,0,2,1.17c1.35.35,1.8.22,1.94.1a.24.24,0,0,1,.34,0,.23.23,0,0,1,0,.34A1.35,1.35,0,0,1,395.22,412Z" transform="translate(-107.92 -166.83)"/><path class="cls-6" d="M355.72,431.63h-.08a.23.23,0,0,1-.15-.3,8.26,8.26,0,0,1,2.92-4.12.25.25,0,0,1,.34,0,.25.25,0,0,1-.05.35,7.9,7.9,0,0,0-2.75,3.87A.23.23,0,0,1,355.72,431.63Z" transform="translate(-107.92 -166.83)"/><path class="cls-6" d="M354.48,452.63a14.68,14.68,0,0,1-3.17-.3c-.3-.06-.59-.14-.89-.22a10.3,10.3,0,0,0-1.44-.32,11.88,11.88,0,0,0-2.73.07l-6.94.75a.24.24,0,0,1-.27-.22.24.24,0,0,1,.22-.26l6.94-.75a11.7,11.7,0,0,1,2.84-.08,12.27,12.27,0,0,1,1.51.34l.86.22a19.48,19.48,0,0,0,4.82.24.25.25,0,0,1,0,.49C355.66,452.61,355.07,452.63,354.48,452.63Z" transform="translate(-107.92 -166.83)"/><path class="cls-6" d="M336.71,456.8a.23.23,0,0,1-.23-.18.24.24,0,0,1,.17-.3l8-2a22.5,22.5,0,0,1,4.58-.79.23.23,0,0,1,.25.23.24.24,0,0,1-.24.25,22.5,22.5,0,0,0-4.47.78l-8,2Z" transform="translate(-107.92 -166.83)"/><path class="cls-6" d="M311.46,408.67a.26.26,0,0,1-.22-.13,10.66,10.66,0,0,0-6.52-5.71.24.24,0,0,1-.16-.3.25.25,0,0,1,.31-.16,11.14,11.14,0,0,1,6.81,6,.24.24,0,0,1-.11.32A.22.22,0,0,1,311.46,408.67Z" transform="translate(-107.92 -166.83)"/><path class="cls-6" d="M303.53,438.57a.23.23,0,0,1-.16-.06.23.23,0,0,1,0-.34,33.68,33.68,0,0,0,4.42-6.43.25.25,0,0,1,.33-.1.24.24,0,0,1,.1.33,33.84,33.84,0,0,1-4.48,6.52A.27.27,0,0,1,303.53,438.57Z" transform="translate(-107.92 -166.83)"/><path class="cls-6" d="M321.64,434.93a18.86,18.86,0,0,1-7.81-1.69.24.24,0,0,1-.12-.32.23.23,0,0,1,.32-.12,18.48,18.48,0,0,0,12.15,1.07c.41-.1.81-.22,1.21-.34a17.7,17.7,0,0,1,2.61-.62,17.21,17.21,0,0,1,2.26-.12,13.94,13.94,0,0,0,2.74-.21.24.24,0,0,1,.29.19.23.23,0,0,1-.19.28,14.31,14.31,0,0,1-2.84.22,17.86,17.86,0,0,0-2.19.12,18.41,18.41,0,0,0-2.54.61c-.41.12-.82.24-1.23.34A18.84,18.84,0,0,1,321.64,434.93Z" transform="translate(-107.92 -166.83)"/><path class="cls-6" d="M316.65,386.77a.26.26,0,0,1-.22-.13c-.07-.14-.15-.27-.22-.4a3.31,3.31,0,0,1-.64-2.33,4,4,0,0,0,0-1,1.41,1.41,0,0,0-.19-.56,1.81,1.81,0,0,0-1.14-.58,3.67,3.67,0,0,1-1-.37.26.26,0,0,1-.09-.34.25.25,0,0,1,.34-.08,2.93,2.93,0,0,0,.89.32,2.2,2.2,0,0,1,1.43.78,1.87,1.87,0,0,1,.26.75,4.17,4.17,0,0,1,0,1.17,2.94,2.94,0,0,0,.58,2l.23.41a.25.25,0,0,1-.1.33A.2.2,0,0,1,316.65,386.77Z" transform="translate(-107.92 -166.83)"/><path class="cls-6" d="M329.8,386.9a.3.3,0,0,1-.15,0,.26.26,0,0,1,0-.35c.43-.54,1-1.61.47-2.19-.09-.1-.19-.18-.28-.27a2.38,2.38,0,0,1-.4-.38,2.85,2.85,0,0,1-.29-.45,18.15,18.15,0,0,1-1.65-3.77.23.23,0,0,1,.17-.29.24.24,0,0,1,.3.16,17.9,17.9,0,0,0,1.61,3.67,3,3,0,0,0,.24.38,2,2,0,0,0,.33.31c.11.1.23.2.33.31.71.77.2,2-.44,2.83A.25.25,0,0,1,329.8,386.9Z" transform="translate(-107.92 -166.83)"/><path class="cls-6" d="M324.68,380.92a.62.62,0,0,0-.28-.23c-.79-.29-.66,1-.6,1.37s.39,1.15.87,1c.23-.06.31-.34.34-.57A2.16,2.16,0,0,0,324.68,380.92Z" transform="translate(-107.92 -166.83)"/><path class="cls-6" d="M332.39,380.62a2.21,2.21,0,0,0,0-.68.76.76,0,0,0-.4-.53.47.47,0,0,0-.6.17.7.7,0,0,0-.06.35,3.72,3.72,0,0,0,.17,1.1,1,1,0,0,0,.24.41.41.41,0,0,0,.45.06c.17-.1.2-.33.22-.54Z" transform="translate(-107.92 -166.83)"/><path class="cls-6" d="M322.09,380.57a.24.24,0,0,1-.14-.05.25.25,0,0,1-.06-.34,4.07,4.07,0,0,1,1.2-1.25,3.9,3.9,0,0,1,1.51-.42.23.23,0,0,1,.27.2.24.24,0,0,1-.2.28,3.5,3.5,0,0,0-1.33.36,3.71,3.71,0,0,0-1,1.11A.24.24,0,0,1,322.09,380.57Z" transform="translate(-107.92 -166.83)"/><path class="cls-6" d="M332.32,378.49a.25.25,0,0,1-.19-.09,1.12,1.12,0,0,0-1-.33,3.44,3.44,0,0,0-1.17.39.25.25,0,0,1-.32-.12.26.26,0,0,1,.12-.33,4.33,4.33,0,0,1,1.33-.43,1.55,1.55,0,0,1,1.4.52.24.24,0,0,1,0,.34A.21.21,0,0,1,332.32,378.49Z" transform="translate(-107.92 -166.83)"/><path class="cls-6" d="M328.53,393.06a2.12,2.12,0,0,1-.5-.05,4.32,4.32,0,0,1-1-.45,4,4,0,0,1-1.54-1.66.83.83,0,0,1-.13-.41.73.73,0,0,1,.64-.67,1.6,1.6,0,0,1,.73.1,6.67,6.67,0,0,0,1.91.32,3.26,3.26,0,0,0,1.55-.36c.32-.17.58-.12.72.09.3.44-.14,1.6-.14,1.61A2.38,2.38,0,0,1,328.53,393.06Zm-2.43-2.77H326c-.12,0-.23.11-.23.19a.51.51,0,0,0,.07.18,3.51,3.51,0,0,0,1.35,1.46,3.79,3.79,0,0,0,.93.4,1.91,1.91,0,0,0,2.13-1.13,2.7,2.7,0,0,0,.2-1.14l-.1.05a3.65,3.65,0,0,1-1.75.41h0a6.93,6.93,0,0,1-2.05-.33A1.89,1.89,0,0,0,326.1,390.29Z" transform="translate(-107.92 -166.83)"/><path class="cls-12" d="M348.94,764.28c-3.34,12.82-2.61,26.36-.63,39.46,19.57-6.25,34.18-23.41,42-42.4s9.78-39.82,11-60.32C379.32,718.16,356,737.27,348.94,764.28Z" transform="translate(-107.92 -166.83)"/><path class="cls-12" d="M262.3,767.49c11,15.69,28.13,25.74,45,34.76a92.88,92.88,0,0,0-57.69-101.17C246.77,724,249.09,748.59,262.3,767.49Z" transform="translate(-107.92 -166.83)"/><path class="cls-12" d="M377.38,635.41c0,1-17.7,12-20.16,14.13a76.69,76.69,0,0,0-17.51,23.24c-8.7,17.41-10.37,38.64-2.6,56.47,12.46-6.25,19.73-19.33,26.05-31.76C373.44,677.27,377.9,658.3,377.38,635.41Z" transform="translate(-107.92 -166.83)"/><path class="cls-13" d="M333.28,780.32a341.77,341.77,0,0,1,2.41-36.46c.73-5.9,1.68-11.76,2.57-17.64s1.87-11.84,3.27-17.66c2.71-11.34,7.74-21.89,13.37-32,4.31-7.76,9.15-15.39,11.88-23.9.18-.57,1.09-.33.9.25-3.43,10.72-10.05,20.08-15.11,30a142.68,142.68,0,0,0-7.3,16.21,112.55,112.55,0,0,0-4.47,17.43c-1.09,5.88-1.9,11.82-2.81,17.73q-1.42,9.11-2.3,18.26c-1.15,12.15-1.57,24.36-1.51,36.56q0,6.93.28,13.87c.08,2.32.18,4.62.43,6.93a53,53,0,0,1,.45,6.9.47.47,0,0,1-.94,0,83.82,83.82,0,0,0-.66-9.09c-.25-3-.27-6.08-.35-9.11Q333.15,789.46,333.28,780.32Z" transform="translate(-107.92 -166.83)"/><path class="cls-13" d="M330.28,831.36c1.78-4.68,4.84-8.7,7.89-12.62,3.25-4.17,6.46-8.28,8.74-13.09,2.38-5,4-10.33,6.52-15.28a153.14,153.14,0,0,1,9-14.83c6-9.13,11.67-18.47,17.33-27.81,5.51-9.1,10.9-18.7,13-29.26.12-.59,1-.34.91.25-2.1,10.63-7.54,20.31-13.09,29.48-5.77,9.55-11.59,19.07-17.71,28.4a149.78,149.78,0,0,0-8.75,14.54c-2.46,4.85-4.08,10.07-6.38,15-2.14,4.59-5.2,8.56-8.31,12.53s-6.39,8.14-8.23,13C331,832.17,330.06,831.93,330.28,831.36Z" transform="translate(-107.92 -166.83)"/><path class="cls-13" d="M256.36,715a88.12,88.12,0,0,0,6.43,16.15c2.52,5.15,5,10.31,7.65,15.42A221.19,221.19,0,0,0,288,775.3c5.34,7.43,12.75,13.25,16.83,21.59a43.38,43.38,0,0,1,3.92,13,103.21,103.21,0,0,1,.68,14,.47.47,0,0,1-.94,0,90.38,90.38,0,0,0-1-15.77,39.93,39.93,0,0,0-5.79-14.72c-2.84-4.34-6.52-8.06-10-11.93a117.46,117.46,0,0,1-9.64-13,219.05,219.05,0,0,1-14.67-25.77c-4.33-9-9.48-17.77-12-27.46A.47.47,0,0,1,256.36,715Z" transform="translate(-107.92 -166.83)"/><path class="cls-13" d="M332.75,832.4c1.5-12.21,2.49-24.48,4-36.69a336.22,336.22,0,0,1,6.56-35.77c2.71-11.49,5.92-23,10.52-33.92,4.21-10,10-19.1,16.31-27.87,4.42-6.18,9.05-12.21,13.47-18.4.35-.48,1.17,0,.82.48-6.29,8.78-13,17.27-18.94,26.3a137.43,137.43,0,0,0-8.09,14,128.78,128.78,0,0,0-6.54,16.18,295.11,295.11,0,0,0-9.13,34.76,367,367,0,0,0-5.44,36.75c-.85,8.08-1.62,16.17-2.6,24.23C333.62,833,332.68,833,332.75,832.4Z" transform="translate(-107.92 -166.83)"/><path class="cls-14" d="M400.36,671.61a22.37,22.37,0,0,1-1.35,3.24c-2.91,5.82-18.31,24.69-24.93,12.91-1.37-7.82,3.32-15.28,7.85-21.79,2.13-3,4.4-6.2,7.73-7.84,8.69-4.32,12.74,5.59,10.92,12.68C400.52,671.08,400.44,671.34,400.36,671.61Z" transform="translate(-107.92 -166.83)"/><path class="cls-13" d="M380.06,682.17a29.79,29.79,0,0,1,2.52-8.12,48.79,48.79,0,0,1,3.25-6.51,25.4,25.4,0,0,1,2.45-3.3c1-1.19,2.44-2.53,4.12-2.55s2.45,1.41,2.69,2.75a10.61,10.61,0,0,1-.53,4.83,19.94,19.94,0,0,1-2,4.17,11.11,11.11,0,0,1-3.42,4,2.41,2.41,0,0,1-3.43-.79,5.48,5.48,0,0,1,0-4.6c.24-.55,1.15-.31.91.25-.51,1.21-1,4,.69,4.57s3.31-2.16,4-3.27c1.69-2.6,3.53-6.24,2.68-9.44a1.91,1.91,0,0,0-1.66-1.5,3.84,3.84,0,0,0-2.47,1.27,19.28,19.28,0,0,0-3.12,3.85,40.91,40.91,0,0,0-3.13,6.11,30.48,30.48,0,0,0-2.68,8.31,4.41,4.41,0,0,0,.28,2.78c.48.81,1.6.64,2.35.45,3.82-1,6.9-4,9-7.25a25.52,25.52,0,0,0,3.84-11.51,20.21,20.21,0,0,0-.24-5.38c-.11-.59.8-.84.91-.25a25,25,0,0,1-6.56,21.23,16.14,16.14,0,0,1-4.58,3.28,7.15,7.15,0,0,1-3.85.94C380,686.18,379.86,683.84,380.06,682.17Z" transform="translate(-107.92 -166.83)"/><polygon class="cls-14" points="193.46 738.83 236.36 738.83 254.42 643.2 175.4 643.2 193.46 738.83"/><path class="cls-15" d="M344.47,905.9H301.18l0-.19L283,809.8h79.6l-.06.28Zm-42.89-.48h42.5l18-95.15H283.6Z" transform="translate(-107.92 -166.83)"/><path class="cls-13" d="M332.63,897.13c.46-7.07,3.48-13.74,9.16-18.11a28.51,28.51,0,0,1,8.34-4.35l-.2,1.09c-6.14,2.15-11.38,6.08-14.28,12.56A27.94,27.94,0,0,0,333.49,900c0,1.91.23,3.81.37,5.71h-1A67.46,67.46,0,0,1,332.63,897.13Z" transform="translate(-107.92 -166.83)"/><path class="cls-13" d="M295.67,860.73a17.19,17.19,0,0,0,7.28,5.4c3.78,1.52,8,1.67,11.67,3.34a9.92,9.92,0,0,1,5.81,7.08c.75,3.75-.48,7.74-2,11.13a37.33,37.33,0,0,1-8.14,11,83.86,83.86,0,0,1-8.21,7h-.68l-.11-.57a64.12,64.12,0,0,0,12.77-12c4.15-5.43,9.1-15.8,2.5-21.33-3.21-2.69-7.74-2.78-11.58-3.93a20,20,0,0,1-8.17-4.45,26.49,26.49,0,0,1-4.56-6.14l-.57-3.06A44.44,44.44,0,0,0,295.67,860.73Z" transform="translate(-107.92 -166.83)"/><path class="cls-13" d="M356.47,841.12c-2.16,1.37-4.29,2.77-6.44,4.06a41,41,0,0,1-11.58,5,25.79,25.79,0,0,1-13.28-.49,18.58,18.58,0,0,1-6-3.06,12.61,12.61,0,0,1-3.71-5.2,42.92,42.92,0,0,0-2.66-6,8.07,8.07,0,0,0-4.58-3.37c-3.9-1.21-8.31-.59-12.3-.32a43.31,43.31,0,0,1-8.52,0l-.19-1,.78.1c4.28.44,8.6-.21,12.88-.38,3.58-.14,7.66-.08,10.65,2.16,3.48,2.58,3.89,7.39,6.06,10.87,2.59,4.12,8.19,5.78,12.75,6.24a26.44,26.44,0,0,0,13.06-2.23c4.68-2,8.93-4.94,13.27-7.66Z" transform="translate(-107.92 -166.83)"/><path class="cls-13" d="M294.07,677.53c10.53,18.33,15.51,39.3,19,60,1.75,10.47,3.23,21,4.38,31.57a213.87,213.87,0,0,1,1.12,35.87q-.33,5.55-1.09,11c-.08.6-1,.35-.91-.25,3.15-23.07.34-46.33-3-69.21-3.09-20.94-7.26-42.2-16.5-61.41-1.16-2.42-2.42-4.79-3.75-7.11A.47.47,0,0,1,294.07,677.53Z" transform="translate(-107.92 -166.83)"/><rect class="cls-14" x="171.07" y="643.2" width="88.72" height="20.46"/><path class="cls-15" d="M368,830.73h-89.2V809.8H368Zm-88.72-.47h88.24v-20H279.23Z" transform="translate(-107.92 -166.83)"/><path class="cls-14" d="M301.44,673.61c.59,2.92.75,5.89-.1,8.25a8.25,8.25,0,0,1-5.88,5.52c-4.09.76-7.76-2.53-10.36-5.79-3.85-4.82-7.13-10.46-7.4-16.63a10.11,10.11,0,0,1,2-7.07c7-8.15,16.72,1.36,19.4,8.05A45.52,45.52,0,0,1,301.44,673.61Z" transform="translate(-107.92 -166.83)"/><path class="cls-13" d="M286,661c2.84-1.51,5.86,3,7.09,5a32.33,32.33,0,0,1,2.46,4.7c.63,1.46,1.32,3.18,1,4.79-.15.63-.5,1.22-1.19,1.28s-1.3-.7-1.68-1.16a24.34,24.34,0,0,1-2.67-4.51c-.27-.54.54-1,.81-.48.52,1,1.05,2,1.64,3,.19.3,1.64,2.66,2,2,.85-1.42-.43-3.89-1-5.17a30.68,30.68,0,0,0-2.41-4.39,12.72,12.72,0,0,0-3.66-4,1.94,1.94,0,0,0-2.28-.06,2.76,2.76,0,0,0-.61,2.67,22.67,22.67,0,0,0,2.91,7.31,48.15,48.15,0,0,0,4.75,7.17,15.56,15.56,0,0,0,2.74,2.76c.65.47,1.6,1,2.41.64,1.41-.7,1.48-3.07,1.46-4.38a22.14,22.14,0,0,0-1.28-6.63,27.68,27.68,0,0,0-8.93-12.66c-.48-.37.2-1,.67-.66a29.16,29.16,0,0,1,8.76,12,25.8,25.8,0,0,1,1.6,6.3,9.16,9.16,0,0,1-.78,5.86c-2.93,4.82-9-4.67-10.29-6.68a36.28,36.28,0,0,1-3.14-5.65C285.43,667.68,282.74,662.73,286,661Z" transform="translate(-107.92 -166.83)"/><path class="cls-13" d="M355.63,768.28a.48.48,0,0,1,.95,0c0,3-.27,6,.56,8.85a6.92,6.92,0,0,0,6.49,5.21c2.84,0,5.56-1.61,7.84-3.15s4.24-3.31,6.31-5c.47-.39,1.14.28.67.66a82.7,82.7,0,0,1-6.93,5.46c-2.44,1.63-5.31,3.1-8.32,3a7.68,7.68,0,0,1-6.62-4.94C355.3,775.15,355.63,771.63,355.63,768.28Z" transform="translate(-107.92 -166.83)"/><path class="cls-13" d="M370.87,743.45a.47.47,0,0,1,.94,0,27.39,27.39,0,0,0,.48,7.29,6.19,6.19,0,0,0,5.47,4.66c2.51.14,4.86-1.52,6.7-3s3.48-3.32,5.18-5a.47.47,0,0,1,.66.66,66.72,66.72,0,0,1-5.77,5.51c-2,1.6-4.52,3-7.21,2.79a7.09,7.09,0,0,1-5.72-4.66C370.6,749.09,370.87,746.14,370.87,743.45Z" transform="translate(-107.92 -166.83)"/><path class="cls-13" d="M339.27,694.91c.05-.6,1-.6.94,0a28.58,28.58,0,0,0,.25,7.39c.41,2.35,1.32,5.27,3.85,6.07,3,.93,5.84-1.14,7.84-3.09a33.14,33.14,0,0,0,5.24-6.94.47.47,0,0,1,.81.48,34.72,34.72,0,0,1-5.74,7.47c-2.19,2.07-5.07,3.77-8.18,3-2.73-.63-4-3.45-4.55-5.92A27,27,0,0,1,339.27,694.91Z" transform="translate(-107.92 -166.83)"/><path class="cls-13" d="M349.8,666.41c.35,3.35,1.58,7.48,5.12,8.69s7.07-1.53,9.32-4c.41-.44,1.08.23.66.67-2.57,2.78-6.43,5.49-10.4,4.13s-5.26-5.88-5.64-9.54C348.8,665.8,349.74,665.81,349.8,666.41Z" transform="translate(-107.92 -166.83)"/><path class="cls-13" d="M277.49,776.51a14.56,14.56,0,0,0,9,6.59,7.91,7.91,0,0,0,5.61-.69,12.15,12.15,0,0,0,4.23-4.23c4-6.38,1.47-14.79.37-21.62-.09-.6.81-.85.91-.25,1.2,7.47,3.78,16.4-1,23.17a12.86,12.86,0,0,1-4.47,4,8.89,8.89,0,0,1-5.64.6,15.25,15.25,0,0,1-9.78-7.07A.47.47,0,0,1,277.49,776.51Z" transform="translate(-107.92 -166.83)"/><path class="cls-13" d="M259.15,741.52a14.7,14.7,0,0,0,3,3.32,22.24,22.24,0,0,0,4.8,3.24,5.15,5.15,0,0,0,7.5-2.12c1.46-2.68,1.25-6.15,1-9.08s-.91-5.5-1.35-8.26c-.09-.6.82-.85.91-.25.46,2.91,1.11,5.78,1.4,8.72s.35,6.51-1.11,9.34a6,6,0,0,1-7.11,3.14,20.38,20.38,0,0,1-8.91-6.31,9,9,0,0,1-.93-1.27C258,741.47,258.84,741,259.15,741.52Z" transform="translate(-107.92 -166.83)"/><path class="cls-16" d="M540.92,167l-31.28,13.64a2,2,0,0,0-.12,3.59l6.35,3.27,18.89-13.14a.26.26,0,0,1,.42.21l-15.83,15.11a2,2,0,0,0-.62,1.44v7a2,2,0,0,0,3.69,1l3.84-6.28,8.12,4.19a2,2,0,0,0,2.85-1.3l6.42-26.46A2,2,0,0,0,540.92,167Z" transform="translate(-107.92 -166.83)"/><path class="cls-17" d="M520.23,201.44s.81,1.49-1.2,5.75" transform="translate(-107.92 -166.83)"/><path class="cls-18" d="M512.46,217.09c-8.72,10.81-26.84,28.43-64.23,56.35-79,59-154.3-31.17-124-52,48-33,91,89,86,128-1.64,12.8-3.29,21.18-4.77,26.66" transform="translate(-107.92 -166.83)"/><path class="cls-17" d="M403.63,381.77c-2,5.08-3.4,4.67-3.4,4.67" transform="translate(-107.92 -166.83)"/><circle class="cls-1" cx="114.31" cy="229.61" r="20.5"/><path class="cls-16" d="M220.49,405.06v.25a1.61,1.61,0,0,0,1.61,1.61h.27a1.61,1.61,0,0,0,1.61-1.61v-.25Z" transform="translate(-107.92 -166.83)"/><path class="cls-16" d="M229.11,400.08a8.8,8.8,0,0,1-1.64-5.1v-1.56a5.4,5.4,0,0,0-4.07-5.28V387a1.08,1.08,0,0,0-1.08-1.08h-.18a1.07,1.07,0,0,0-1.07,1.08v1.09a5.25,5.25,0,0,0-4.08,5.11V395a8.79,8.79,0,0,1-1.63,5.1.55.55,0,0,0-.11.33v2.72a.58.58,0,0,0,.58.59h12.81a.58.58,0,0,0,.58-.59v-2.72A.55.55,0,0,0,229.11,400.08Z" transform="translate(-107.92 -166.83)"/></svg>